<?xml version="1.0" encoding="UTF-8" standalone="no"?>
<!-- Created with Inkscape (http://www.inkscape.org/) -->

<svg
   xmlns:dc="http://purl.org/dc/elements/1.1/"
   xmlns:cc="http://creativecommons.org/ns#"
   xmlns:rdf="http://www.w3.org/1999/02/22-rdf-syntax-ns#"
   xmlns:svg="http://www.w3.org/2000/svg"
   xmlns="http://www.w3.org/2000/svg"
   xmlns:sodipodi="http://sodipodi.sourceforge.net/DTD/sodipodi-0.dtd"
   xmlns:inkscape="http://www.inkscape.org/namespaces/inkscape"
   width="384"
   height="82"
   viewBox="0 0 384 81.999999"
   id="svg2"
   version="1.1"
   inkscape:version="0.91 r13725"
   sodipodi:docname="icons.svg">
  <defs
     id="defs4">
    <clipPath
       clipPathUnits="userSpaceOnUse"
       id="clipPath4618">
      <g
         id="g4620"
         style="fill:#37474f;fill-opacity:1;stroke:none;stroke-width:1.9184984;stroke-linecap:butt;stroke-miterlimit:20.29999924;stroke-dasharray:none;stroke-opacity:1">
        <g
           id="g4622"
           style="fill:#37474f;fill-opacity:1;stroke:none;stroke-width:1.9184984;stroke-linecap:butt;stroke-miterlimit:20.29999924;stroke-dasharray:none;stroke-opacity:1">
          <g
             id="g4624"
             style="fill:#37474f;fill-opacity:1;stroke:none;stroke-width:1.9184984;stroke-linecap:butt;stroke-miterlimit:20.29999924;stroke-dasharray:none;stroke-opacity:1">
            <path
               id="path4626"
               d="m 42.776,44.5 c -0.015,-0.004 -0.028,-0.01 -0.044,-0.016 -0.748,-0.246 -1.492,-0.507 -2.246,-0.736 -2.859,-0.869 -5.699,-1.795 -8.494,-2.854 -2.68,-1.014 -5.302,-2.15 -7.811,-3.539 -0.062,-0.033 -0.124,-0.068 -0.197,-0.109 0.045,-0.051 0.08,-0.094 0.119,-0.133 1.053,-1.078 2.105,-2.16 3.162,-3.234 0.673,-0.686 1.357,-1.358 2.033,-2.042 0.191,-0.194 0.367,-0.404 0.546,-0.612 0.098,-0.113 0.139,-0.251 0.114,-0.404 -0.021,-0.139 -0.084,-0.258 -0.195,-0.341 -0.186,-0.138 -0.369,-0.286 -0.572,-0.396 -0.484,-0.26 -0.979,-0.51 -1.474,-0.75 -0.511,-0.246 -1.029,-0.475 -1.566,-0.66 -0.161,-0.055 -0.323,-0.068 -0.487,-0.04 -0.121,0.021 -0.242,0.058 -0.356,0.103 -0.217,0.082 -0.428,0.176 -0.644,0.262 -0.778,0.305 -1.58,0.535 -2.388,0.748 -1.007,0.266 -2.023,0.49 -3.055,0.637 -0.137,0.02 -0.274,0.031 -0.438,0.05 0.037,-0.063 0.059,-0.103 0.083,-0.139 0.078,-0.121 0.161,-0.24 0.236,-0.364 0.117,-0.191 0.147,-0.398 0.066,-0.609 -0.065,-0.168 -0.134,-0.336 -0.227,-0.488 -0.274,-0.445 -0.609,-0.846 -0.961,-1.231 -0.211,-0.231 -0.456,-0.416 -0.732,-0.563 -0.332,-0.178 -0.672,-0.342 -1.031,-0.457 -0.18,-0.059 -0.37,-0.086 -0.553,-0.139 -0.312,-0.088 -0.702,0.262 -0.625,0.629 0.045,0.217 0.071,0.438 0.098,0.657 0.058,0.478 0.038,0.952 -0.157,1.399 -0.183,0.42 -0.372,0.84 -0.591,1.242 -0.501,0.925 -1.128,1.765 -1.783,2.584 -1.132,1.418 -2.359,2.752 -3.647,4.028 -0.997,0.988 -2.025,1.946 -3.033,2.923 -0.278,0.27 -0.542,0.553 -0.803,0.84 -0.163,0.178 -0.157,0.514 0.007,0.694 0.047,0.052 0.127,0.089 0.198,0.104 0.148,0.029 0.3,0.02 0.439,-0.049 0.18,-0.09 0.365,-0.172 0.534,-0.279 0.605,-0.383 1.207,-0.771 1.809,-1.161 1.882,-1.214 3.663,-2.56 5.342,-4.042 0.461,-0.406 0.937,-0.795 1.402,-1.197 0.122,-0.105 0.246,-0.121 0.384,-0.053 0.125,0.061 0.251,0.122 0.371,0.191 1.115,0.649 2.22,1.314 3.273,2.062 0.036,0.025 0.071,0.055 0.116,0.088 -0.34,0.311 -0.668,0.618 -1.003,0.916 -1.336,1.189 -2.751,2.277 -4.217,3.301 -1.652,1.151 -3.356,2.219 -5.146,3.145 -0.284,0.146 -0.565,0.299 -0.841,0.46 -0.11,0.063 -0.211,0.149 -0.298,0.244 -0.194,0.209 -0.129,0.526 0.133,0.644 0.091,0.041 0.197,0.061 0.299,0.068 0.259,0.02 0.515,-0.02 0.767,-0.075 0.57,-0.123 1.123,-0.306 1.672,-0.502 3.248,-1.162 6.314,-2.692 9.205,-4.573 0.692,-0.449 1.365,-0.929 2.048,-1.393 0.237,-0.161 0.269,-0.158 0.484,0.025 2.127,1.818 4.252,3.64 6.382,5.455 0.562,0.479 1.141,0.937 1.711,1.405 0.11,0.091 0.236,0.142 0.371,0.185 0.271,0.086 0.547,0.078 0.827,0.051 0.467,-0.045 0.937,-0.076 1.403,-0.114 0.438,-0.035 0.875,-0.069 1.312,-0.104 0.422,-0.035 0.843,-0.074 1.265,-0.11 0.42,-0.036 0.844,-0.066 1.265,-0.103 0.653,-0.058 1.305,-0.117 1.958,-0.175 0.52,-0.046 1.039,-0.084 1.557,-0.135 0.652,-0.065 1.303,-0.134 1.953,-0.214 0.266,-0.033 0.527,-0.096 0.788,-0.156 0.133,-0.031 0.25,-0.098 0.299,-0.24 0,-0.072 0,-0.145 0,-0.217 C 43.13,44.677 42.984,44.556 42.776,44.5 Z M 23.771,31.633 c -0.28,0.396 -0.555,0.796 -0.849,1.181 -0.567,0.742 -1.157,1.466 -1.789,2.155 -0.122,0.133 -0.261,0.249 -0.39,0.375 -0.092,0.089 -0.193,0.104 -0.311,0.059 -0.389,-0.152 -0.784,-0.287 -1.167,-0.451 -0.851,-0.367 -1.698,-0.746 -2.544,-1.123 -0.173,-0.078 -0.336,-0.176 -0.521,-0.272 0.045,-0.062 0.073,-0.11 0.111,-0.147 0.252,-0.258 0.504,-0.518 0.762,-0.771 0.04,-0.039 0.108,-0.058 0.166,-0.069 0.399,-0.076 0.8,-0.148 1.2,-0.223 0.81,-0.148 1.621,-0.299 2.432,-0.445 0.801,-0.146 1.602,-0.287 2.403,-0.43 0.152,-0.027 0.304,-0.055 0.457,-0.079 0.045,-0.007 0.091,-0.008 0.178,-0.014 -0.056,0.103 -0.089,0.184 -0.138,0.254 z"
               style="fill:#37474f;fill-opacity:1;stroke:none;stroke-width:1.9184984;stroke-linecap:butt;stroke-miterlimit:20.29999924;stroke-dasharray:none;stroke-opacity:1"
               inkscape:connector-curvature="0" />
            <path
               id="path4628"
               d="M 5.771,24.633 C 5.943,24.399 6.079,24.145 6.196,23.88 6.557,23.063 6.774,22.205 6.938,21.331 7.076,20.594 7.145,19.85 7.191,19.103 7.196,19.027 7.209,18.952 7.219,18.868 7.635,18.794 8.04,18.719 8.446,18.65 c 0.706,-0.12 1.413,-0.236 2.12,-0.354 0.727,-0.121 1.454,-0.241 2.181,-0.361 0.595,-0.098 1.19,-0.194 1.785,-0.292 0.666,-0.109 1.332,-0.218 1.999,-0.326 0.616,-0.1 1.231,-0.199 1.847,-0.298 0.616,-0.099 1.232,-0.196 1.848,-0.293 0.565,-0.089 1.13,-0.178 1.696,-0.265 0.571,-0.088 1.141,-0.174 1.712,-0.26 0.525,-0.079 1.05,-0.158 1.575,-0.236 0.52,-0.077 1.041,-0.154 1.561,-0.229 0.531,-0.077 1.062,-0.154 1.593,-0.23 0.545,-0.079 1.092,-0.157 1.637,-0.236 0.48,-0.069 0.959,-0.137 1.439,-0.204 0.485,-0.068 0.971,-0.133 1.456,-0.199 0.435,-0.058 0.869,-0.117 1.304,-0.171 0.25,-0.031 0.502,-0.05 0.752,-0.082 0.123,-0.016 0.18,0.042 0.145,0.179 -0.018,0.064 -0.044,0.127 -0.075,0.186 -0.067,0.128 -0.135,0.256 -0.211,0.378 -0.485,0.781 -1.004,1.539 -1.58,2.256 -0.213,0.265 -0.446,0.514 -0.675,0.766 -0.161,0.177 -0.357,0.228 -0.59,0.153 -0.387,-0.125 -0.777,-0.241 -1.164,-0.364 -0.859,-0.274 -1.715,-0.557 -2.6,-0.74 -0.314,-0.065 -0.629,-0.114 -0.953,-0.08 -0.121,0.013 -0.231,0.048 -0.328,0.125 -0.133,0.108 -0.161,0.234 -0.072,0.383 0.047,0.079 0.105,0.155 0.171,0.218 0.151,0.147 0.308,0.29 0.47,0.427 0.477,0.403 0.963,0.797 1.436,1.205 1.031,0.891 2.006,1.845 2.971,2.808 0.395,0.394 0.803,0.774 1.212,1.153 0.272,0.252 0.562,0.486 0.886,0.675 0.229,0.135 0.471,0.222 0.742,0.236 0.538,0.029 0.959,-0.237 1.141,-0.742 0.098,-0.272 0.121,-0.553 0.106,-0.839 -0.022,-0.443 -0.137,-0.865 -0.307,-1.272 -0.271,-0.647 -0.666,-1.209 -1.161,-1.703 -0.156,-0.156 -0.307,-0.316 -0.467,-0.481 0.06,-0.033 0.104,-0.059 0.148,-0.082 0.562,-0.294 1.123,-0.589 1.688,-0.879 1.035,-0.534 2.072,-1.066 3.109,-1.596 0.076,-0.039 0.16,-0.075 0.246,-0.089 0.188,-0.032 0.377,-0.053 0.567,-0.072 0.349,-0.035 0.698,-0.064 1.048,-0.101 0.118,-0.012 0.236,-0.032 0.35,-0.062 0.401,-0.105 0.603,-0.528 0.431,-0.902 -0.076,-0.165 -0.175,-0.316 -0.313,-0.438 -0.123,-0.11 -0.244,-0.223 -0.371,-0.329 -0.974,-0.816 -1.988,-1.579 -3.027,-2.309 -0.334,-0.234 -0.68,-0.451 -1.022,-0.671 -0.198,-0.127 -0.419,-0.182 -0.651,-0.145 -0.228,0.036 -0.461,0.069 -0.679,0.144 -0.885,0.304 -1.794,0.503 -2.712,0.671 -0.72,0.131 -1.439,0.265 -2.16,0.39 -0.594,0.103 -1.191,0.192 -1.785,0.29 -0.535,0.088 -1.067,0.179 -1.602,0.269 -0.134,0.023 -0.268,0.046 -0.417,0.072 0.015,-0.033 0.019,-0.049 0.028,-0.059 0.066,-0.065 0.132,-0.131 0.201,-0.191 1.287,-1.101 2.552,-2.227 3.793,-3.379 0.367,-0.34 0.723,-0.694 1.084,-1.04 0.076,-0.074 0.121,-0.16 0.14,-0.268 C 32.202,8.417 32.151,8.087 31.998,7.771 31.824,7.413 31.571,7.112 31.283,6.843 30.574,6.179 29.734,5.776 28.778,5.619 28.524,5.577 28.268,5.543 28.007,5.573 c -0.19,0.022 -0.327,0.115 -0.416,0.282 -0.094,0.181 -0.16,0.37 -0.143,0.578 0.014,0.154 0.025,0.309 0.057,0.46 0.082,0.382 0.054,0.742 -0.137,1.094 -0.223,0.413 -0.414,0.842 -0.632,1.258 -0.753,1.446 -1.51,2.889 -2.268,4.332 -0.185,0.352 -0.189,0.355 -0.572,0.429 -1.173,0.229 -2.346,0.46 -3.522,0.676 -1.14,0.21 -2.284,0.399 -3.426,0.602 -1.38,0.245 -2.76,0.491 -4.138,0.743 -1.348,0.247 -2.694,0.505 -4.043,0.752 C 8.137,16.894 7.5,16.956 6.858,16.93 6.828,16.929 6.798,16.922 6.766,16.917 6.614,16.621 6.471,16.323 6.311,16.035 6.191,15.819 6.058,15.61 5.916,15.407 5.856,15.321 5.768,15.246 5.676,15.193 5.452,15.061 5.176,15.188 5.124,15.441 5.1,15.557 5.092,15.676 5.083,15.795 c -0.031,0.401 -0.053,0.803 -0.09,1.204 -0.06,0.646 -0.216,1.269 -0.455,1.872 -0.256,0.645 -0.597,1.246 -0.958,1.836 -0.105,0.172 -0.207,0.345 -0.246,0.547 -0.007,0.034 -0.032,0.064 -0.048,0.095 0,0.382 0,0.764 0,1.146 0.02,0.078 0.049,0.156 0.058,0.235 0.043,0.427 0.123,0.847 0.255,1.256 0.099,0.306 0.226,0.597 0.418,0.859 0.113,0.152 0.258,0.251 0.445,0.283 0.53,0.088 0.978,-0.046 1.309,-0.495 z"
               style="fill:#37474f;fill-opacity:1;stroke:none;stroke-width:1.9184984;stroke-linecap:butt;stroke-miterlimit:20.29999924;stroke-dasharray:none;stroke-opacity:1"
               inkscape:connector-curvature="0" />
            <path
               id="path4630"
               d="M 9.116,9.011 C 9.263,9.072 9.416,9.094 9.571,9.078 9.935,9.039 10.3,9.007 10.66,8.942 11.938,8.712 13.216,8.485 14.489,8.229 15.934,7.939 17.374,7.629 18.813,7.31 20.805,6.868 22.78,6.358 24.744,5.805 25.602,5.564 26.46,5.329 27.319,5.089 27.482,5.043 27.647,4.996 27.802,4.93 28.13,4.79 28.282,4.54 28.24,4.113 28.22,3.913 28.135,3.736 28.033,3.568 27.418,2.543 26.672,1.625 25.769,0.838 25.365,0.485 24.941,0.157 24.414,0 24.29,0 24.166,0 24.042,0 23.849,0.095 23.763,0.261 23.73,0.464 23.72,0.525 23.706,0.586 23.701,0.647 23.679,0.914 23.655,1.182 23.641,1.45 23.636,1.538 23.606,1.593 23.533,1.637 23.242,1.814 22.961,2.008 22.662,2.169 22.095,2.475 21.522,2.771 20.945,3.057 19.587,3.73 18.216,4.374 16.819,4.962 14.539,5.922 12.229,6.805 9.917,7.683 9.696,7.767 9.478,7.863 9.27,7.976 8.994,8.126 8.856,8.34 8.915,8.76 8.933,8.886 9.001,8.964 9.116,9.011 Z"
               style="fill:#37474f;fill-opacity:1;stroke:none;stroke-width:1.9184984;stroke-linecap:butt;stroke-miterlimit:20.29999924;stroke-dasharray:none;stroke-opacity:1"
               inkscape:connector-curvature="0" />
            <path
               id="path4632"
               d="m 13.939,20.736 c -0.09,-0.104 -0.203,-0.191 -0.317,-0.269 -0.094,-0.064 -0.204,-0.095 -0.324,-0.064 -0.298,0.077 -0.508,0.381 -0.449,0.683 0.032,0.166 0.085,0.33 0.151,0.485 0.202,0.47 0.46,0.911 0.75,1.333 0.816,1.189 1.879,2.104 3.13,2.808 1.329,0.747 2.761,1.215 4.249,1.513 0.621,0.124 1.25,0.215 1.877,0.305 0.352,0.051 0.708,0.086 1.063,0.098 0.779,0.025 1.558,0.031 2.415,0.047 0.816,-0.031 1.708,-0.062 2.6,-0.1 0.574,-0.023 1.143,-0.08 1.705,-0.19 0.34,-0.065 0.672,-0.156 0.979,-0.326 0.423,-0.235 0.576,-0.612 0.572,-1.073 -0.002,-0.115 -0.034,-0.227 -0.107,-0.318 -0.076,-0.096 -0.154,-0.194 -0.248,-0.273 -0.277,-0.234 -0.591,-0.415 -0.915,-0.574 -0.893,-0.439 -1.733,-0.964 -2.475,-1.629 -0.657,-0.589 -1.296,-1.198 -1.944,-1.797 -0.238,-0.221 -0.48,-0.439 -0.722,-0.656 -0.164,-0.147 -0.361,-0.165 -0.567,-0.129 -0.117,0.02 -0.167,0.067 -0.167,0.186 -0.001,0.18 0,0.362 0.024,0.54 0.039,0.288 0.156,0.555 0.271,0.82 0.24,0.548 0.488,1.092 0.729,1.64 0.052,0.117 0.092,0.241 0.125,0.365 0.036,0.137 -0.005,0.219 -0.132,0.276 -0.068,0.032 -0.145,0.054 -0.219,0.069 -0.301,0.061 -0.605,0.074 -0.91,0.066 -0.614,-0.017 -1.228,-0.031 -1.841,-0.065 -0.566,-0.031 -1.133,-0.073 -1.697,-0.134 -0.579,-0.063 -1.156,-0.147 -1.731,-0.237 -0.77,-0.121 -1.527,-0.299 -2.262,-0.559 -0.64,-0.226 -1.254,-0.502 -1.791,-0.928 -0.428,-0.336 -0.819,-0.712 -1.173,-1.123 l 0,0 c -0.221,-0.26 -0.426,-0.533 -0.649,-0.79 z"
               style="fill:#37474f;fill-opacity:1;stroke:none;stroke-width:1.9184984;stroke-linecap:butt;stroke-miterlimit:20.29999924;stroke-dasharray:none;stroke-opacity:1"
               inkscape:connector-curvature="0" />
            <path
               id="path4634"
               d="m 11.437,19.584 c -0.103,0.009 -0.206,0.03 -0.308,0.023 -0.136,-0.009 -0.199,0.054 -0.254,0.171 -0.17,0.359 -0.352,0.711 -0.53,1.067 -0.498,0.997 -1.016,1.982 -1.634,2.911 -0.148,0.223 -0.279,0.458 -0.424,0.683 -0.197,0.306 -0.274,0.644 -0.289,0.998 -0.034,0.786 0.077,1.554 0.311,2.304 0.075,0.241 0.172,0.475 0.314,0.687 0.117,0.175 0.276,0.293 0.481,0.339 0.213,0.048 0.419,0.01 0.619,-0.074 0.374,-0.156 0.661,-0.414 0.896,-0.738 0.289,-0.396 0.478,-0.84 0.627,-1.305 0.327,-1.023 0.466,-2.08 0.552,-3.146 0.052,-0.653 0.079,-1.307 0.121,-2.014 0,-0.247 0.003,-0.546 -0.001,-0.845 -0.004,-0.306 -0.034,-0.607 -0.184,-0.884 -0.065,-0.122 -0.156,-0.189 -0.297,-0.177 z"
               style="fill:#37474f;fill-opacity:1;stroke:none;stroke-width:1.9184984;stroke-linecap:butt;stroke-miterlimit:20.29999924;stroke-dasharray:none;stroke-opacity:1"
               inkscape:connector-curvature="0" />
            <path
               id="path4636"
               d="m 18.552,21.478 c 0.721,0.627 1.478,1.208 2.299,1.7 0.184,0.111 0.382,0.205 0.584,0.278 0.328,0.118 0.575,0.037 0.8,-0.229 0.133,-0.158 0.217,-0.343 0.254,-0.541 0.071,-0.385 0.139,-0.771 0.182,-1.16 0.071,-0.652 0.172,-1.297 0.334,-1.934 0.062,-0.244 0.109,-0.493 0.151,-0.742 0.036,-0.212 -0.064,-0.323 -0.281,-0.327 -0.108,-0.002 -0.218,-0.005 -0.325,0.011 -0.26,0.038 -0.519,0.082 -0.777,0.133 -0.672,0.131 -1.344,0.265 -2.015,0.403 -0.291,0.06 -0.572,0.054 -0.847,-0.068 -0.118,-0.052 -0.241,-0.091 -0.359,-0.141 -0.241,-0.104 -0.478,-0.219 -0.722,-0.315 -0.157,-0.061 -0.324,-0.096 -0.486,-0.143 -0.193,0.011 -0.326,0.094 -0.396,0.265 -0.033,0.08 -0.059,0.167 -0.064,0.252 -0.033,0.502 0.125,0.943 0.443,1.331 0.369,0.451 0.789,0.848 1.225,1.227 z"
               style="fill:#37474f;fill-opacity:1;stroke:none;stroke-width:1.9184984;stroke-linecap:butt;stroke-miterlimit:20.29999924;stroke-dasharray:none;stroke-opacity:1"
               inkscape:connector-curvature="0" />
            <path
               id="path4638"
               d="M 19.919,9.509 C 19.511,9.324 19.103,9.138 18.688,8.969 18.086,8.725 17.475,8.506 16.844,8.35 16.652,8.303 16.459,8.276 16.262,8.305 c -0.137,0.02 -0.189,0.07 -0.211,0.206 -0.026,0.16 -0.027,0.32 0.026,0.474 0.056,0.166 0.11,0.333 0.181,0.493 0.3,0.678 0.698,1.299 1.129,1.899 0.593,0.826 1.268,1.576 2.071,2.205 0.26,0.204 0.536,0.385 0.838,0.524 0.224,0.103 0.455,0.162 0.704,0.148 0.328,-0.018 0.57,-0.161 0.702,-0.471 0.132,-0.31 0.158,-0.638 0.166,-0.941 -0.004,-0.365 -0.036,-0.699 -0.122,-1.025 -0.273,-1.036 -0.824,-1.853 -1.827,-2.308 z"
               style="fill:#37474f;fill-opacity:1;stroke:none;stroke-width:1.9184984;stroke-linecap:butt;stroke-miterlimit:20.29999924;stroke-dasharray:none;stroke-opacity:1"
               inkscape:connector-curvature="0" />
            <path
               id="path4640"
               d="m 8.938,11.447 c 0.458,0.782 1.013,1.495 1.608,2.176 0.452,0.517 0.921,1.019 1.437,1.474 0.462,0.408 1.014,0.6 1.55,0.652 0.512,0.01 0.819,-0.107 0.934,-0.65 0.041,-0.195 0.057,-0.4 0.049,-0.599 C 14.492,13.905 14.328,13.343 14.081,12.803 13.767,12.115 13.296,11.582 12.593,11.276 11.965,11.003 11.338,10.727 10.706,10.462 10.121,10.217 9.531,9.987 8.922,9.809 8.833,9.783 8.742,9.759 8.651,9.752 8.498,9.741 8.435,9.8 8.416,9.954 c -0.027,0.215 0.002,0.426 0.09,0.621 0.133,0.296 0.269,0.593 0.432,0.872 z"
               style="fill:#37474f;fill-opacity:1;stroke:none;stroke-width:1.9184984;stroke-linecap:butt;stroke-miterlimit:20.29999924;stroke-dasharray:none;stroke-opacity:1"
               inkscape:connector-curvature="0" />
          </g>
        </g>
        <g
           id="g4642"
           style="fill:#37474f;fill-opacity:1;stroke:none;stroke-width:1.9184984;stroke-linecap:butt;stroke-miterlimit:20.29999924;stroke-dasharray:none;stroke-opacity:1" />
        <g
           id="g4644"
           style="fill:#37474f;fill-opacity:1;stroke:none;stroke-width:1.9184984;stroke-linecap:butt;stroke-miterlimit:20.29999924;stroke-dasharray:none;stroke-opacity:1" />
        <g
           id="g4646"
           style="fill:#37474f;fill-opacity:1;stroke:none;stroke-width:1.9184984;stroke-linecap:butt;stroke-miterlimit:20.29999924;stroke-dasharray:none;stroke-opacity:1" />
        <g
           id="g4648"
           style="fill:#37474f;fill-opacity:1;stroke:none;stroke-width:1.9184984;stroke-linecap:butt;stroke-miterlimit:20.29999924;stroke-dasharray:none;stroke-opacity:1" />
        <g
           id="g4650"
           style="fill:#37474f;fill-opacity:1;stroke:none;stroke-width:1.9184984;stroke-linecap:butt;stroke-miterlimit:20.29999924;stroke-dasharray:none;stroke-opacity:1" />
        <g
           id="g4652"
           style="fill:#37474f;fill-opacity:1;stroke:none;stroke-width:1.9184984;stroke-linecap:butt;stroke-miterlimit:20.29999924;stroke-dasharray:none;stroke-opacity:1" />
        <g
           id="g4654"
           style="fill:#37474f;fill-opacity:1;stroke:none;stroke-width:1.9184984;stroke-linecap:butt;stroke-miterlimit:20.29999924;stroke-dasharray:none;stroke-opacity:1" />
        <g
           id="g4656"
           style="fill:#37474f;fill-opacity:1;stroke:none;stroke-width:1.9184984;stroke-linecap:butt;stroke-miterlimit:20.29999924;stroke-dasharray:none;stroke-opacity:1" />
        <g
           id="g4658"
           style="fill:#37474f;fill-opacity:1;stroke:none;stroke-width:1.9184984;stroke-linecap:butt;stroke-miterlimit:20.29999924;stroke-dasharray:none;stroke-opacity:1" />
        <g
           id="g4660"
           style="fill:#37474f;fill-opacity:1;stroke:none;stroke-width:1.9184984;stroke-linecap:butt;stroke-miterlimit:20.29999924;stroke-dasharray:none;stroke-opacity:1" />
        <g
           id="g4662"
           style="fill:#37474f;fill-opacity:1;stroke:none;stroke-width:1.9184984;stroke-linecap:butt;stroke-miterlimit:20.29999924;stroke-dasharray:none;stroke-opacity:1" />
        <g
           id="g4664"
           style="fill:#37474f;fill-opacity:1;stroke:none;stroke-width:1.9184984;stroke-linecap:butt;stroke-miterlimit:20.29999924;stroke-dasharray:none;stroke-opacity:1" />
        <g
           id="g4666"
           style="fill:#37474f;fill-opacity:1;stroke:none;stroke-width:1.9184984;stroke-linecap:butt;stroke-miterlimit:20.29999924;stroke-dasharray:none;stroke-opacity:1" />
        <g
           id="g4668"
           style="fill:#37474f;fill-opacity:1;stroke:none;stroke-width:1.9184984;stroke-linecap:butt;stroke-miterlimit:20.29999924;stroke-dasharray:none;stroke-opacity:1" />
        <g
           id="g4670"
           style="fill:#37474f;fill-opacity:1;stroke:none;stroke-width:1.9184984;stroke-linecap:butt;stroke-miterlimit:20.29999924;stroke-dasharray:none;stroke-opacity:1" />
      </g>
    </clipPath>
  </defs>
  <sodipodi:namedview
     id="base"
     pagecolor="#d7d7d7"
     bordercolor="#666666"
     borderopacity="1.0"
     inkscape:pageopacity="0"
     inkscape:pageshadow="2"
     inkscape:zoom="4"
     inkscape:cx="32.947877"
     inkscape:cy="42.559479"
     inkscape:document-units="px"
     inkscape:current-layer="layer1"
     showgrid="true"
     units="px"
     inkscape:window-width="1729"
     inkscape:window-height="900"
     inkscape:window-x="118"
     inkscape:window-y="94"
     inkscape:window-maximized="0"
     fit-margin-top="0"
     fit-margin-left="0"
     fit-margin-right="0"
     fit-margin-bottom="1"
     showguides="true"
     inkscape:snap-global="false"
     inkscape:showpageshadow="false"
     showborder="true">
    <inkscape:grid
       type="xygrid"
       id="grid4248"
       enabled="true"
       dotted="false"
       originy="18"
       originx="0"
       spacingx="64"
       spacingy="64" />
  </sodipodi:namedview>
  <metadata
     id="metadata7">
    <rdf:RDF>
      <cc:Work
         rdf:about="">
        <dc:format>image/svg+xml</dc:format>
        <dc:type
           rdf:resource="http://purl.org/dc/dcmitype/StillImage" />
        <dc:title />
      </cc:Work>
    </rdf:RDF>
  </metadata>
  <g
     inkscape:label="Layer 1"
     inkscape:groupmode="layer"
     id="layer1"
     transform="translate(-1,-973.36214)">
    <g
       id="g3480"
       transform="matrix(0.04596689,0,0,0.04607105,2.000016,1038.344)"
       style="fill:#72818a;fill-opacity:1">
      <g
         id="g3436"
         style="fill:#72818a;fill-opacity:1">
        <g
           id="g3438"
           style="fill:#72818a;fill-opacity:1">
          <g
             id="g3440"
             style="fill:#72818a;fill-opacity:1">
            <path
               id="path3442"
               d="M 340.273,275.083 286.518,221.322 C 275.811,210.658 258.08,210.982 247,222.066 l -27.082,27.076 c -1.711,-0.943 -3.482,-1.928 -5.344,-2.973 -17.102,-9.476 -40.509,-22.464 -65.14,-47.113 -24.704,-24.701 -37.704,-48.144 -47.209,-65.257 -1.003,-1.813 -1.964,-3.561 -2.913,-5.221 l 18.176,-18.149 8.936,-8.947 c 11.097,-11.1 11.403,-28.826 0.721,-39.521 L 73.39,8.194 C 62.708,-2.486 44.969,-2.162 33.872,8.938 l -15.15,15.237 0.414,0.411 C 14.056,31.068 9.811,38.544 6.652,46.606 3.74,54.28 1.927,61.603 1.098,68.941 -6,127.785 20.89,181.564 93.866,254.541 c 100.875,100.868 182.167,93.248 185.674,92.876 7.638,-0.913 14.958,-2.738 22.397,-5.627 7.992,-3.122 15.463,-7.361 21.941,-12.43 l 0.331,0.294 15.348,-15.029 c 11.074,-11.098 11.393,-28.83 0.716,-39.542 z"
               inkscape:connector-curvature="0"
               style="fill:#72818a;fill-opacity:1" />
          </g>
        </g>
      </g>
      <g
         id="g3444"
         style="fill:#72818a;fill-opacity:1" />
      <g
         id="g3446"
         style="fill:#72818a;fill-opacity:1" />
      <g
         id="g3448"
         style="fill:#72818a;fill-opacity:1" />
      <g
         id="g3450"
         style="fill:#72818a;fill-opacity:1" />
      <g
         id="g3452"
         style="fill:#72818a;fill-opacity:1" />
      <g
         id="g3454"
         style="fill:#72818a;fill-opacity:1" />
      <g
         id="g3456"
         style="fill:#72818a;fill-opacity:1" />
      <g
         id="g3458"
         style="fill:#72818a;fill-opacity:1" />
      <g
         id="g3460"
         style="fill:#72818a;fill-opacity:1" />
      <g
         id="g3462"
         style="fill:#72818a;fill-opacity:1" />
      <g
         id="g3464"
         style="fill:#72818a;fill-opacity:1" />
      <g
         id="g3466"
         style="fill:#72818a;fill-opacity:1" />
      <g
         id="g3468"
         style="fill:#72818a;fill-opacity:1" />
      <g
         id="g3470"
         style="fill:#72818a;fill-opacity:1" />
      <g
         id="g3472"
         style="fill:#72818a;fill-opacity:1" />
    </g>
    <g
       id="g3614"
       transform="matrix(0.04187199,0,0,0.04019001,19,1039.1406)"
       style="fill:#72818a;fill-opacity:1">
      <path
         id="path3576"
         d="m 360.64631,45.945 -291.409996,0 c -25.008,0 -45.354001,19.539 -45.354001,43.555 l 0,203.117 c 0,24.016 20.346001,43.555 45.354001,43.555 l 291.409996,0 c 25.008,0 45.353,-19.539 45.353,-43.555 l 0,-203.117 c 0,-24.016 -20.345,-43.555 -45.353,-43.555 z m 0,251.775 -291.409996,0 c -3.676,0 -6.9,-2.384 -6.9,-5.103 l 0,-176.258 131.796996,111.27 c 2.702,2.282 6.138,3.538 9.676,3.538 l 22.259,0.001 c 3.536,0 6.974,-1.257 9.677,-3.539 l 131.803,-111.274 0,176.264 c -0.002,2.717 -3.227,5.101 -6.902,5.101 z M 214.94131,192.987 86.752314,84.397 l 256.377996,0 -128.189,108.59 z"
         inkscape:connector-curvature="0"
         style="fill:#72818a;fill-opacity:1" />
      <g
         id="g3578"
         style="fill:#72818a;fill-opacity:1" />
      <g
         id="g3580"
         style="fill:#72818a;fill-opacity:1" />
      <g
         id="g3582"
         style="fill:#72818a;fill-opacity:1" />
      <g
         id="g3584"
         style="fill:#72818a;fill-opacity:1" />
      <g
         id="g3586"
         style="fill:#72818a;fill-opacity:1" />
      <g
         id="g3588"
         style="fill:#72818a;fill-opacity:1" />
      <g
         id="g3590"
         style="fill:#72818a;fill-opacity:1" />
      <g
         id="g3592"
         style="fill:#72818a;fill-opacity:1" />
      <g
         id="g3594"
         style="fill:#72818a;fill-opacity:1" />
      <g
         id="g3596"
         style="fill:#72818a;fill-opacity:1" />
      <g
         id="g3598"
         style="fill:#72818a;fill-opacity:1" />
      <g
         id="g3600"
         style="fill:#72818a;fill-opacity:1" />
      <g
         id="g3602"
         style="fill:#72818a;fill-opacity:1" />
      <g
         id="g3604"
         style="fill:#72818a;fill-opacity:1" />
      <g
         id="g3606"
         style="fill:#72818a;fill-opacity:1" />
    </g>
    <g
       id="g3749"
       transform="matrix(0.02921864,0,0,0.03013731,38.063124,1037.9619)"
       style="fill:#72818a;fill-opacity:1">
      <g
         id="g3709"
         style="fill:#72818a;fill-opacity:1">
        <path
           id="path3711"
           d="M 538.59921,254.788 292.34521,38.216 c -11.475,-10.098 -30.064,-10.098 -41.386,0 L 4.7822065,254.788 c -11.475,10.098 -8.415,18.284 6.8849995,18.284 l 75.964,0 0,221.773 c 0,12.087 9.945,22.108 22.108004,22.108 l 92.947,0 0,-145.886 c 0,-12.087 9.945,-22.108 22.109,-22.108 l 93.865,0 c 12.239,0 22.108,9.792 22.108,22.108 l 0,145.886 92.947,0 c 12.24,0 22.108,-9.945 22.108,-22.108 l 0,-221.85 75.965,0 c 15.072,0 18.132,-8.109 6.811,-18.207 z"
           inkscape:connector-curvature="0"
           style="fill:#72818a;fill-opacity:1" />
      </g>
      <g
         id="g3713"
         style="fill:#72818a;fill-opacity:1" />
      <g
         id="g3715"
         style="fill:#72818a;fill-opacity:1" />
      <g
         id="g3717"
         style="fill:#72818a;fill-opacity:1" />
      <g
         id="g3719"
         style="fill:#72818a;fill-opacity:1" />
      <g
         id="g3721"
         style="fill:#72818a;fill-opacity:1" />
      <g
         id="g3723"
         style="fill:#72818a;fill-opacity:1" />
      <g
         id="g3725"
         style="fill:#72818a;fill-opacity:1" />
      <g
         id="g3727"
         style="fill:#72818a;fill-opacity:1" />
      <g
         id="g3729"
         style="fill:#72818a;fill-opacity:1" />
      <g
         id="g3731"
         style="fill:#72818a;fill-opacity:1" />
      <g
         id="g3733"
         style="fill:#72818a;fill-opacity:1" />
      <g
         id="g3735"
         style="fill:#72818a;fill-opacity:1" />
      <g
         id="g3737"
         style="fill:#72818a;fill-opacity:1" />
      <g
         id="g3739"
         style="fill:#72818a;fill-opacity:1" />
      <g
         id="g3741"
         style="fill:#72818a;fill-opacity:1" />
    </g>
    <g
       transform="matrix(0.04596689,0,0,0.04607105,56.000016,1038.344)"
       id="g3787"
       style="fill:#ffffff">
      <g
         id="g3789"
         style="fill:#ffffff">
        <g
           id="g3791"
           style="fill:#ffffff">
          <g
             id="g3793"
             style="fill:#ffffff">
            <path
               inkscape:connector-curvature="0"
               d="M 340.273,275.083 286.518,221.322 C 275.811,210.658 258.08,210.982 247,222.066 l -27.082,27.076 c -1.711,-0.943 -3.482,-1.928 -5.344,-2.973 -17.102,-9.476 -40.509,-22.464 -65.14,-47.113 -24.704,-24.701 -37.704,-48.144 -47.209,-65.257 -1.003,-1.813 -1.964,-3.561 -2.913,-5.221 l 18.176,-18.149 8.936,-8.947 c 11.097,-11.1 11.403,-28.826 0.721,-39.521 L 73.39,8.194 C 62.708,-2.486 44.969,-2.162 33.872,8.938 l -15.15,15.237 0.414,0.411 C 14.056,31.068 9.811,38.544 6.652,46.606 3.74,54.28 1.927,61.603 1.098,68.941 -6,127.785 20.89,181.564 93.866,254.541 c 100.875,100.868 182.167,93.248 185.674,92.876 7.638,-0.913 14.958,-2.738 22.397,-5.627 7.992,-3.122 15.463,-7.361 21.941,-12.43 l 0.331,0.294 15.348,-15.029 c 11.074,-11.098 11.393,-28.83 0.716,-39.542 z"
               id="path3795"
               style="fill:#ffffff" />
          </g>
        </g>
      </g>
      <g
         id="g3797"
         style="fill:#ffffff" />
      <g
         id="g3799"
         style="fill:#ffffff" />
      <g
         id="g3801"
         style="fill:#ffffff" />
      <g
         id="g3803"
         style="fill:#ffffff" />
      <g
         id="g3805"
         style="fill:#ffffff" />
      <g
         id="g3807"
         style="fill:#ffffff" />
      <g
         id="g3809"
         style="fill:#ffffff" />
      <g
         id="g3811"
         style="fill:#ffffff" />
      <g
         id="g3813"
         style="fill:#ffffff" />
      <g
         id="g3815"
         style="fill:#ffffff" />
      <g
         id="g3817"
         style="fill:#ffffff" />
      <g
         id="g3819"
         style="fill:#ffffff" />
      <g
         id="g3821"
         style="fill:#ffffff" />
      <g
         id="g3823"
         style="fill:#ffffff" />
      <g
         id="g3825"
         style="fill:#ffffff" />
    </g>
    <g
       transform="matrix(0.04187199,0,0,0.04019001,74,1038.3281)"
       id="g3827"
       style="fill:#ffffff">
      <path
         inkscape:connector-curvature="0"
         d="m 336.764,66.161463 -291.41,0 C 20.346,66.161463 0,85.700463 0,109.71646 l 0,203.11701 c 0,24.016 20.346,43.555 45.354,43.555 l 291.41,0 c 25.008,0 45.353,-19.539 45.353,-43.555 l 0,-203.11701 c 0,-24.015997 -20.345,-43.554997 -45.353,-43.554997 z m 0,251.775007 -291.41,0 c -3.676,0 -6.9,-2.384 -6.9,-5.103 l 0,-176.258 131.797,111.27 c 2.702,2.282 6.138,3.538 9.676,3.538 l 22.259,0.001 c 3.536,0 6.974,-1.257 9.677,-3.539 l 131.803,-111.274 0,176.264 c -0.002,2.717 -3.227,5.101 -6.902,5.101 z M 191.059,213.20347 62.87,104.61346 l 256.378,0 -128.189,108.59001 z"
         id="path3829"
         style="fill:#ffffff" />
      <g
         id="g3831"
         style="fill:#ffffff" />
      <g
         id="g3833"
         style="fill:#ffffff" />
      <g
         id="g3835"
         style="fill:#ffffff" />
      <g
         id="g3837"
         style="fill:#ffffff" />
      <g
         id="g3839"
         style="fill:#ffffff" />
      <g
         id="g3841"
         style="fill:#ffffff" />
      <g
         id="g3843"
         style="fill:#ffffff" />
      <g
         id="g3845"
         style="fill:#ffffff" />
      <g
         id="g3847"
         style="fill:#ffffff" />
      <g
         id="g3849"
         style="fill:#ffffff" />
      <g
         id="g3851"
         style="fill:#ffffff" />
      <g
         id="g3853"
         style="fill:#ffffff" />
      <g
         id="g3855"
         style="fill:#ffffff" />
      <g
         id="g3857"
         style="fill:#ffffff" />
      <g
         id="g3859"
         style="fill:#ffffff" />
    </g>
    <g
       transform="matrix(0.02921864,0,0,0.03013731,92.063124,1037.9619)"
       id="g3861"
       style="fill:#ffffff">
      <g
         id="g3863"
         style="fill:#ffffff">
        <path
           inkscape:connector-curvature="0"
           d="M 538.59921,254.788 292.34521,38.216 c -11.475,-10.098 -30.064,-10.098 -41.386,0 L 4.7822065,254.788 c -11.475,10.098 -8.415,18.284 6.8849995,18.284 l 75.964,0 0,221.773 c 0,12.087 9.945,22.108 22.108004,22.108 l 92.947,0 0,-145.886 c 0,-12.087 9.945,-22.108 22.109,-22.108 l 93.865,0 c 12.239,0 22.108,9.792 22.108,22.108 l 0,145.886 92.947,0 c 12.24,0 22.108,-9.945 22.108,-22.108 l 0,-221.85 75.965,0 c 15.072,0 18.132,-8.109 6.811,-18.207 z"
           id="path3865"
           style="fill:#ffffff" />
      </g>
      <g
         id="g3867"
         style="fill:#ffffff" />
      <g
         id="g3869"
         style="fill:#ffffff" />
      <g
         id="g3871"
         style="fill:#ffffff" />
      <g
         id="g3873"
         style="fill:#ffffff" />
      <g
         id="g3875"
         style="fill:#ffffff" />
      <g
         id="g3877"
         style="fill:#ffffff" />
      <g
         id="g3879"
         style="fill:#ffffff" />
      <g
         id="g3881"
         style="fill:#ffffff" />
      <g
         id="g3883"
         style="fill:#ffffff" />
      <g
         id="g3885"
         style="fill:#ffffff" />
      <g
         id="g3887"
         style="fill:#ffffff" />
      <g
         id="g3889"
         style="fill:#ffffff" />
      <g
         id="g3891"
         style="fill:#ffffff" />
      <g
         id="g3893"
         style="fill:#ffffff" />
      <g
         id="g3895"
         style="fill:#ffffff" />
    </g>
    <g
       id="g5105"
       transform="matrix(0.17728919,0,0,0.20693787,75.987982,981.56041)"
       style="fill:#72818a;stroke:#72818a;stroke-opacity:1;fill-opacity:1;stroke-width:2.56864441;stroke-miterlimit:4;stroke-dasharray:none">
      <g
         id="g5051"
         style="fill:#72818a;stroke:#72818a;stroke-opacity:1;fill-opacity:1;stroke-width:2.56864441;stroke-miterlimit:4;stroke-dasharray:none">
        <g
           id="g5053"
           style="fill:#72818a;stroke:#72818a;stroke-opacity:1;fill-opacity:1;stroke-width:2.56864441;stroke-miterlimit:4;stroke-dasharray:none">
          <path
             id="path5055"
             d="m 197.609,67.258 c -1.501,0 -2.72,1.218 -2.72,2.72 0,0.19 -0.027,0.375 -0.027,0.566 -0.305,33.521 -27.092,60.695 -60.009,60.695 -23.997,0 -45.558,-14.484 -55.092,-36.92 -0.071,-0.163 -0.152,-0.315 -0.218,-0.479 -0.577,-1.387 -2.17,-2.051 -3.552,-1.474 -1.387,0.571 -2.045,2.165 -1.474,3.552 10.274,24.759 33.956,40.755 60.336,40.755 36.105,0 65.475,-29.92 65.475,-66.705 0.001,-1.497 -1.218,-2.71 -2.719,-2.71 z"
             style="fill:#72818a;stroke:#72818a;stroke-opacity:1;fill-opacity:1;stroke-width:2.56864441;stroke-miterlimit:4;stroke-dasharray:none"
             inkscape:connector-curvature="0" />
          <path
             id="path5057"
             d="m 200.454,159.467 c 1.104,0.685 2.54,0.479 3.421,-0.49 32.324,-35.419 29.958,-90.414 -5.113,-122.966 -0.185,-0.169 -0.337,-0.359 -0.522,-0.522 -1.104,-1.017 -2.828,-0.941 -3.84,0.174 -0.375,0.413 -0.593,0.908 -0.669,1.42 0.06,-0.533 0.267,-1.05 0.669,-1.496 1.012,-1.115 2.736,-1.153 3.84,-0.136 0.185,0.169 0.337,0.375 0.522,0.544 0.082,-0.049 0.158,-0.076 0.239,-0.125 1.289,-0.772 1.708,-2.437 0.941,-3.726 -0.767,-1.289 -2.437,-2.91 -3.731,-2.138 -1.387,0.838 -2.779,1.153 -4.166,1.153 -50.219,27.195 -99.48,10.878 -114.144,0 l -3.584,0 c 0,0.337 0,0.528 0,0.794 0,-0.435 -1.006,-0.707 -1.055,-0.734 -0.06,-0.033 0.005,-0.038 -0.054,-0.065 -0.163,-0.082 -0.272,-0.136 -0.446,-0.185 -0.174,-0.049 -0.315,-0.092 -0.5,-0.109 -0.065,-0.005 -0.109,-0.038 -0.174,-0.038 -0.114,0 -0.201,0.049 -0.305,0.065 -0.179,0.022 -0.354,0.049 -0.517,0.103 -0.174,0.054 -0.332,0.136 -0.49,0.228 -0.141,0.082 -0.277,0.163 -0.397,0.267 -0.147,0.125 -0.272,0.272 -0.392,0.424 -0.065,0.082 -0.152,0.131 -0.207,0.223 -0.033,0.054 -0.033,0.12 -0.065,0.174 -0.087,0.169 -0.136,0.343 -0.185,0.522 -0.049,0.169 -0.092,0.343 -0.103,0.522 -0.005,0.065 -0.038,0.125 -0.038,0.19 0,36.763 -29.909,66.667 -66.667,66.667 -1.061,0 -2.023,0.615 -2.469,1.572 -0.446,0.963 -0.294,2.094 0.392,2.899 1.033,1.229 25.553,29.54 77.817,30.529 -0.43,7.103 -2.507,25.792 -12.477,25.792 -1.153,0 -2.187,0.734 -2.567,1.822 -0.381,1.093 -0.027,2.306 0.876,3.03 0.294,0.234 4.052,3.149 10.612,6.266 -7.296,9.389 -11.206,21.458 -11.206,35.29 0,1.501 1.218,1.615 2.72,1.615 1.502,0 2.72,1.621 2.72,-3.818 l -0.207,0 c 0.267,-13.908 4.743,-23.067 11.291,-30.736 -0.065,-0.027 -0.12,-0.092 -0.185,-0.125 0.109,0.044 0.207,0.087 0.315,0.125 1.267,-1.485 2.622,-2.861 4.041,-4.155 16.518,-14.995 42.354,-17.318 56.289,-17.318 6.413,0 15.371,0.506 24.775,2.48 2.279,0.479 4.569,1.028 6.87,1.692 0.103,-0.076 0.207,-0.152 0.305,-0.228 19.581,5.999 37.666,18.765 37.666,49.207 l 0,-0.936 1.931,0 c 0,5.439 1.218,3.976 2.72,3.976 1.502,0 2.72,-0.587 2.72,-2.089 0,-26.619 -14.43,-45.286 -39.868,-54.162 4.612,-3.72 9.301,-7.849 14.065,-12.581 2.045,-0.473 6.358,-0.903 8.349,1.213 2.083,2.225 1.768,7.424 -0.897,14.637 -0.454,1.223 0.024,2.588 1.134,3.263 z M 197.609,29.968 C 142.087,67.987 87.37,38.692 74.812,32.062 c 0,-0.103 0.011,-0.903 0.011,-0.903 l 1.67,0 c 15.18,10.878 67.765,35.343 121.116,-1.191 z m 17.34,175.241 c 0,-26.766 -15.692,-43.284 -38.77,-50.975 0.044,-0.038 0.092,-0.071 0.136,-0.109 23.002,7.713 38.634,24.373 38.634,51.084 z m -25.254,-69.913 c -0.435,0.125 -0.832,0.364 -1.153,0.685 -5.891,5.891 -11.656,10.911 -17.285,15.251 -9.056,-2.388 -19.26,-3.671 -30.578,-3.671 -27.462,0 -48.593,7.321 -61.712,20.571 -2.611,-1.18 -4.814,-2.355 -6.56,-3.383 11.444,-6.701 11.596,-31.03 11.596,-32.226 0,-1.501 -1.218,-2.72 -2.72,-2.72 -39.303,0 -63.001,-16.48 -72.149,-24.432 35.306,-3.129 63.306,-31.836 65.476,-67.402 0.011,-0.196 0.016,-0.386 0.027,-0.582 9.018,4.552 32.836,15.235 62.549,15.235 17.508,0 37.04,-3.557 56.746,-14.109 0.016,0.044 0,0.098 0.022,0.141 0.147,0.315 0.354,0.604 0.625,0.854 30.513,27.848 35.115,73.645 12.412,106.812 0.038,-3.59 -0.897,-6.424 -2.812,-8.469 -4.954,-5.291 -14.097,-2.67 -14.484,-2.555 z"
             style="fill:#72818a;stroke:#72818a;stroke-opacity:1;fill-opacity:1;stroke-width:2.56864441;stroke-miterlimit:4;stroke-dasharray:none"
             inkscape:connector-curvature="0" />
          <path
             id="path5059"
             d="m 85.907,21.179 c -4.705,-2.105 -7.305,-3.421 -7.392,-3.476 -1.262,-0.816 -2.948,-0.315 -3.758,0.946 -0.816,1.256 -0.462,1.822 0.794,2.643 0.702,0.457 10.606,9.866 27.946,9.866 9.089,5.439 20.184,4.525 33.157,4.525 6.092,0 12.586,0.223 19.461,-0.636 1.3,-0.163 2.219,1.294 2.317,-3.16 0.011,0.049 0.038,0.071 0.044,0.12 0.011,0.12 -0.027,-0.848 -0.027,-0.848 l -0.288,0 c -0.517,-0.805 -1.572,-1.066 -2.72,-0.908 -3.568,0.446 -7,-0.185 -10.361,0 l 10.693,0.908 -10.699,-0.609 c -28.24,1.556 -48.882,-4.775 -59.167,-9.371 z m -8.871,-2.089 0.571,0.136 c 2.921,2.143 17.536,11.933 41.114,11.933 -26.472,0 -41.685,-12.069 -41.685,-12.069 z"
             style="fill:#72818a;stroke:#72818a;stroke-opacity:1;fill-opacity:1;stroke-width:2.56864441;stroke-miterlimit:4;stroke-dasharray:none"
             inkscape:connector-curvature="0" />
          <circle
             id="circle5061"
             r="7.3699999"
             cy="77.348"
             cx="106.005"
             style="fill:#72818a;stroke:#72818a;stroke-opacity:1;fill-opacity:1;stroke-width:2.56864441;stroke-miterlimit:4;stroke-dasharray:none" />
          <path
             id="path5063"
             d="m 171.306,69.978 c -3.927,0 -7.103,3.079 -7.326,6.946 -0.011,0.141 -0.044,0.277 -0.044,0.424 0,4.068 3.301,7.37 7.37,7.37 4.068,0 7.37,-3.302 7.37,-7.37 0,-1.191 -0.31,-2.295 -0.81,-3.291 -1.213,-2.409 -3.677,-4.079 -6.56,-4.079 z"
             style="fill:#72818a;stroke:#72818a;stroke-opacity:1;fill-opacity:1;stroke-width:2.56864441;stroke-miterlimit:4;stroke-dasharray:none"
             inkscape:connector-curvature="0" />
          <path
             id="path5065"
             d="m 150.474,90.353 c -4.112,4.112 -10.802,4.112 -14.914,0 -1.061,-1.061 -2.785,-1.061 -3.845,0 -1.061,1.061 -1.061,2.785 0,3.845 3.117,3.117 7.212,4.672 11.302,4.672 4.09,0 8.186,-1.556 11.302,-4.672 1.061,-1.061 1.061,-2.785 0,-3.845 -1.06,-1.061 -2.779,-1.061 -3.845,0 z"
             style="fill:#72818a;stroke:#72818a;stroke-opacity:1;fill-opacity:1;stroke-width:2.56864441;stroke-miterlimit:4;stroke-dasharray:none"
             inkscape:connector-curvature="0" />
          <path
             id="path5067"
             d="m 129.382,64.457 c 5.02,1.659 10.47,2.339 16.018,2.339 24.269,0 50.502,-12.983 51.845,-13.657 1.343,-0.674 1.887,-2.312 1.213,-3.655 -0.669,-1.338 -2.306,-1.882 -3.65,-1.213 -0.12,0.06 -4.036,1.996 -10.106,4.357 -11.672,4.542 -31.318,10.617 -47.499,8.066 -2.099,-0.332 -4.161,-0.756 -6.114,-1.403 -1.447,-0.484 -2.964,0.305 -3.432,1.73 -0.478,1.429 0.294,2.969 1.725,3.436 z"
             style="fill:#72818a;stroke:#72818a;stroke-opacity:1;fill-opacity:1;stroke-width:2.56864441;stroke-miterlimit:4;stroke-dasharray:none"
             inkscape:connector-curvature="0" />
        </g>
      </g>
      <g
         id="g5069"
         style="fill:#72818a;stroke:#72818a;stroke-opacity:1;fill-opacity:1;stroke-width:2.56864441;stroke-miterlimit:4;stroke-dasharray:none" />
      <g
         id="g5071"
         style="fill:#72818a;stroke:#72818a;stroke-opacity:1;fill-opacity:1;stroke-width:2.56864441;stroke-miterlimit:4;stroke-dasharray:none" />
      <g
         id="g5073"
         style="fill:#72818a;stroke:#72818a;stroke-opacity:1;fill-opacity:1;stroke-width:2.56864441;stroke-miterlimit:4;stroke-dasharray:none" />
      <g
         id="g5075"
         style="fill:#72818a;stroke:#72818a;stroke-opacity:1;fill-opacity:1;stroke-width:2.56864441;stroke-miterlimit:4;stroke-dasharray:none" />
      <g
         id="g5077"
         style="fill:#72818a;stroke:#72818a;stroke-opacity:1;fill-opacity:1;stroke-width:2.56864441;stroke-miterlimit:4;stroke-dasharray:none" />
      <g
         id="g5079"
         style="fill:#72818a;stroke:#72818a;stroke-opacity:1;fill-opacity:1;stroke-width:2.56864441;stroke-miterlimit:4;stroke-dasharray:none" />
      <g
         id="g5081"
         style="fill:#72818a;stroke:#72818a;stroke-opacity:1;fill-opacity:1;stroke-width:2.56864441;stroke-miterlimit:4;stroke-dasharray:none" />
      <g
         id="g5083"
         style="fill:#72818a;stroke:#72818a;stroke-opacity:1;fill-opacity:1;stroke-width:2.56864441;stroke-miterlimit:4;stroke-dasharray:none" />
      <g
         id="g5085"
         style="fill:#72818a;stroke:#72818a;stroke-opacity:1;fill-opacity:1;stroke-width:2.56864441;stroke-miterlimit:4;stroke-dasharray:none" />
      <g
         id="g5087"
         style="fill:#72818a;stroke:#72818a;stroke-opacity:1;fill-opacity:1;stroke-width:2.56864441;stroke-miterlimit:4;stroke-dasharray:none" />
      <g
         id="g5089"
         style="fill:#72818a;stroke:#72818a;stroke-opacity:1;fill-opacity:1;stroke-width:2.56864441;stroke-miterlimit:4;stroke-dasharray:none" />
      <g
         id="g5091"
         style="fill:#72818a;stroke:#72818a;stroke-opacity:1;fill-opacity:1;stroke-width:2.56864441;stroke-miterlimit:4;stroke-dasharray:none" />
      <g
         id="g5093"
         style="fill:#72818a;stroke:#72818a;stroke-opacity:1;fill-opacity:1;stroke-width:2.56864441;stroke-miterlimit:4;stroke-dasharray:none" />
      <g
         id="g5095"
         style="fill:#72818a;stroke:#72818a;stroke-opacity:1;fill-opacity:1;stroke-width:2.56864441;stroke-miterlimit:4;stroke-dasharray:none" />
      <g
         id="g5097"
         style="fill:#72818a;stroke:#72818a;stroke-opacity:1;fill-opacity:1;stroke-width:2.56864441;stroke-miterlimit:4;stroke-dasharray:none" />
    </g>
    <path
       id="path5134"
       d="m 179.62245,995.93138 c -5.77444,-9.20772 -14.4732,-2.8018 -14.4732,-2.8018 -0.56415,0.41382 -1.60442,0.75406 -2.31124,0.75564 l -2.33,0.002 c -0.70682,7.9e-4 -1.74709,-0.33944 -2.31043,-0.75326 0,0 -8.69957,-6.4075 -14.47483,2.80021 -5.77363,9.20453 -3.4469,19.22883 -3.4469,19.22883 0.40763,2.4544 1.75117,4.0923 4.28661,3.8866 2.5281,-0.2049 8.01558,-6.6101 8.01558,-6.6101 0.45328,-0.5277 1.40305,-0.959 2.10824,-0.959 l 13.96856,0 c 0.70601,0 1.65497,0.4312 2.10743,0.959 0,0 5.48829,6.4051 8.02047,6.61 2.53218,0.2057 3.87898,-1.4337 4.28416,-3.8866 -8.1e-4,-0.044 2.33,-10.0227 -3.44445,-19.2288 z m -23.19968,7.49472 -2.99524,0 0,2.8018 c 0,0 -0.63427,0.47 -1.61583,0.4581 -0.97994,-0.014 -1.42344,-0.5127 -1.42344,-0.5127 l 0,-2.7465 -2.82893,0 c 0,0 -0.353,-0.3513 -0.44757,-1.2762 -0.0929,-0.925 0.3905,-1.6727 0.3905,-1.6727 l 2.99606,0 0,-2.90706 c 0,0 0.61634,-0.32045 1.50252,-0.29593 0.88699,0.0269 1.53675,0.35053 1.53675,0.35053 l -0.0122,2.85166 2.82893,0 c 0,0 0.49405,0.6156 0.53481,1.3593 0.0408,0.7446 -0.46633,1.5897 -0.46633,1.5897 z m 13.73866,3.1934 c -1.31174,0 -2.36913,-1.0294 -2.36913,-2.3009 0,-1.2739 1.05739,-2.301 2.36913,-2.301 1.30604,0 2.37158,1.0271 2.37158,2.301 0,1.2723 -1.06554,2.3009 -2.37158,2.3009 z m 0,-6.3307 c -1.31174,0 -2.36913,-1.02865 -2.36913,-2.30018 0,-1.27391 1.05739,-2.30094 2.36913,-2.30094 1.30604,0 2.37158,1.02703 2.37158,2.30094 0,1.27232 -1.06554,2.30018 -2.37158,2.30018 z m 5.90407,3.3984 c -1.31174,0 -2.36913,-1.0287 -2.36913,-2.301 0,-1.2731 1.05739,-2.30092 2.36913,-2.30092 1.30604,0 2.37157,1.02782 2.37157,2.30092 0,1.2723 -1.06553,2.301 -2.37157,2.301 z"
       style="fill:none;fill-opacity:1;stroke:#72818a;stroke-width:1.603;stroke-linecap:butt;stroke-linejoin:round;stroke-miterlimit:20.39999962;stroke-dasharray:none;stroke-opacity:1"
       inkscape:connector-curvature="0"
       sodipodi:nodetypes="cccccccccsscccccccccccccccccccccccsssssssssssssss" />
    <g
       style="fill:none;fill-opacity:1;stroke:#37474f;stroke-width:1.99586701;stroke-linejoin:round;stroke-miterlimit:4;stroke-dasharray:none;stroke-opacity:1"
       id="g5136"
       transform="matrix(0.81525392,0,0,0.79124497,139.81279,983.79843)" />
    <g
       style="fill:none;fill-opacity:1;stroke:#37474f;stroke-width:1.99586701;stroke-linejoin:round;stroke-miterlimit:4;stroke-dasharray:none;stroke-opacity:1"
       id="g5138"
       transform="matrix(0.81525392,0,0,0.79124497,139.81279,983.79843)" />
    <g
       style="fill:none;fill-opacity:1;stroke:#37474f;stroke-width:1.99586701;stroke-linejoin:round;stroke-miterlimit:4;stroke-dasharray:none;stroke-opacity:1"
       id="g5140"
       transform="matrix(0.81525392,0,0,0.79124497,139.81279,983.79843)" />
    <g
       style="fill:none;fill-opacity:1;stroke:#37474f;stroke-width:1.99586701;stroke-linejoin:round;stroke-miterlimit:4;stroke-dasharray:none;stroke-opacity:1"
       id="g5142"
       transform="matrix(0.81525392,0,0,0.79124497,139.81279,983.79843)" />
    <g
       style="fill:none;fill-opacity:1;stroke:#37474f;stroke-width:1.99586701;stroke-linejoin:round;stroke-miterlimit:4;stroke-dasharray:none;stroke-opacity:1"
       id="g5144"
       transform="matrix(0.81525392,0,0,0.79124497,139.81279,983.79843)" />
    <g
       style="fill:none;fill-opacity:1;stroke:#37474f;stroke-width:1.99586701;stroke-linejoin:round;stroke-miterlimit:4;stroke-dasharray:none;stroke-opacity:1"
       id="g5146"
       transform="matrix(0.81525392,0,0,0.79124497,139.81279,983.79843)" />
    <g
       style="fill:none;fill-opacity:1;stroke:#37474f;stroke-width:1.99586701;stroke-linejoin:round;stroke-miterlimit:4;stroke-dasharray:none;stroke-opacity:1"
       id="g5148"
       transform="matrix(0.81525392,0,0,0.79124497,139.81279,983.79843)" />
    <g
       style="fill:none;fill-opacity:1;stroke:#37474f;stroke-width:1.99586701;stroke-linejoin:round;stroke-miterlimit:4;stroke-dasharray:none;stroke-opacity:1"
       id="g5150"
       transform="matrix(0.81525392,0,0,0.79124497,139.81279,983.79843)" />
    <g
       style="fill:none;fill-opacity:1;stroke:#37474f;stroke-width:1.99586701;stroke-linejoin:round;stroke-miterlimit:4;stroke-dasharray:none;stroke-opacity:1"
       id="g5152"
       transform="matrix(0.81525392,0,0,0.79124497,139.81279,983.79843)" />
    <g
       style="fill:none;fill-opacity:1;stroke:#37474f;stroke-width:1.99586701;stroke-linejoin:round;stroke-miterlimit:4;stroke-dasharray:none;stroke-opacity:1"
       id="g5154"
       transform="matrix(0.81525392,0,0,0.79124497,139.81279,983.79843)" />
    <g
       style="fill:none;fill-opacity:1;stroke:#37474f;stroke-width:1.99586701;stroke-linejoin:round;stroke-miterlimit:4;stroke-dasharray:none;stroke-opacity:1"
       id="g5156"
       transform="matrix(0.81525392,0,0,0.79124497,139.81279,983.79843)" />
    <g
       style="fill:none;fill-opacity:1;stroke:#37474f;stroke-width:1.99586701;stroke-linejoin:round;stroke-miterlimit:4;stroke-dasharray:none;stroke-opacity:1"
       id="g5158"
       transform="matrix(0.81525392,0,0,0.79124497,139.81279,983.79843)" />
    <g
       style="fill:none;fill-opacity:1;stroke:#37474f;stroke-width:1.99586701;stroke-linejoin:round;stroke-miterlimit:4;stroke-dasharray:none;stroke-opacity:1"
       id="g5160"
       transform="matrix(0.81525392,0,0,0.79124497,139.81279,983.79843)" />
    <g
       style="fill:none;fill-opacity:1;stroke:#37474f;stroke-width:1.99586701;stroke-linejoin:round;stroke-miterlimit:4;stroke-dasharray:none;stroke-opacity:1"
       id="g5162"
       transform="matrix(0.81525392,0,0,0.79124497,139.81279,983.79843)" />
    <g
       style="fill:none;fill-opacity:1;stroke:#37474f;stroke-width:1.99586701;stroke-linejoin:round;stroke-miterlimit:4;stroke-dasharray:none;stroke-opacity:1"
       id="g5164"
       transform="matrix(0.81525392,0,0,0.79124497,139.81279,983.79843)" />
    <path
       sodipodi:type="inkscape:offset"
       inkscape:radius="-0.7988115"
       inkscape:original="M 288.33398 985.32227 L 272.08203 995.76562 C 271.80642 995.94277 271.64043 996.2483 271.64062 996.57617 L 271.64453 1013.9082 C 271.64472 1014.2428 271.81878 1014.5533 272.10352 1014.7285 L 288.35156 1024.7148 C 288.5059 1024.8098 288.67908 1024.8574 288.85352 1024.8574 C 289.02797 1024.8574 289.20327 1024.8101 289.35742 1024.7148 L 305.60742 1014.7324 C 305.89206 1014.5574 306.06436 1014.2467 306.06445 1013.9121 L 306.06641 996.58008 C 306.06651 996.2523 305.90032 995.9486 305.625 995.77148 L 289.37305 985.32227 C 289.05639 985.11868 288.65055 985.11868 288.33398 985.32227 z M 288.85352 987.63672 L 294.81055 991.45117 L 288.85352 995.26562 L 282.89844 991.45117 L 288.85352 987.63672 z M 280.80078 992.77148 L 286.49219 996.41602 L 280.80078 1000.0625 L 275.10938 996.41602 L 280.80078 992.77148 z M 296.9082 992.77539 L 302.59961 996.41992 L 296.9082 1000.0664 L 291.2168 996.41992 L 296.9082 992.77539 z M 273.85742 998.22266 L 279.69531 1001.9609 L 279.69531 1008.0449 L 273.85742 1004.4551 L 273.85742 998.22266 z M 287.74414 998.22266 L 287.74414 1004.4551 L 281.9082 1008.0449 L 281.9082 1001.9609 L 287.74414 998.22266 z M 289.96484 998.22656 L 295.80078 1001.9668 L 295.80078 1008.0488 L 289.96484 1004.459 L 289.96484 998.22656 z M 303.85156 998.22656 L 303.85156 1004.459 L 298.01367 1008.0488 L 298.01367 1001.9668 L 303.85156 998.22656 z M 288.85352 1006.3164 L 294.82227 1010.0449 L 288.85352 1013.7637 L 282.88477 1010.0312 L 288.85352 1006.3164 z M 273.85742 1007.0527 L 279.69336 1010.5996 L 279.69531 1016.7969 L 273.85742 1013.207 L 273.85742 1007.0527 z M 303.85156 1007.0625 L 303.85156 1013.2109 L 298.01367 1016.8008 L 298.01367 1010.7188 L 303.85156 1007.0625 z M 281.91016 1011.9238 L 285.79102 1014.4082 L 281.91016 1016.7949 L 281.91016 1011.9238 z M 295.79883 1011.9238 L 295.79883 1016.7988 L 291.91406 1014.4121 L 295.79883 1011.9238 z M 287.74805 1015.8047 L 287.74805 1021.7461 L 282.91797 1018.7754 L 287.74805 1015.8047 z M 289.96094 1015.8105 L 294.78711 1018.7773 L 289.96094 1021.7461 L 289.96094 1015.8105 z "
       style="fill:#72818a;fill-opacity:1;stroke:#72818a;stroke-opacity:1;stroke-width:1;stroke-miterlimit:4;stroke-dasharray:none;stroke-linecap:round;stroke-linejoin:round"
       id="path4400"
       d="m 288.76562,985.99414 -16.25195,10.44336 c -0.0469,0.0302 -0.0743,0.0807 -0.0742,0.13867 l 0.004,17.33203 c 3e-5,0.058 0.0284,0.11 0.0781,0.1406 l 16.24805,9.9864 c 0.0286,0.018 0.0549,0.023 0.084,0.023 0.0301,0 0.0597,-0.01 0.084,-0.023 a 0.79889138,0.79889138 0 0 1 0.002,-0 l 16.25,-9.9824 c 0.0469,-0.029 0.0762,-0.079 0.0762,-0.1387 l 0.002,-17.33202 c 2e-5,-0.0576 -0.0253,-0.10526 -0.0742,-0.13672 l -16.25195,-10.44922 c -0.0555,-0.0357 -0.12045,-0.0356 -0.17579,0 z m 0.11133,0.84375 a 0.79889138,0.79889138 0 0 1 0.40821,0.12695 l 5.95703,3.81446 a 0.79889138,0.79889138 0 0 1 0,1.34375 l -5.95703,3.81445 a 0.79889138,0.79889138 0 0 1 -0.86328,0 l -5.95508,-3.81445 a 0.79889138,0.79889138 0 0 1 0,-1.34375 l 5.95508,-3.81446 a 0.79889138,0.79889138 0 0 1 0.45507,-0.12695 z m -8.05273,5.13477 a 0.79889138,0.79889138 0 0 1 0.4082,0.12695 l 5.69141,3.64453 a 0.79889138,0.79889138 0 0 1 0,1.34375 l -5.69141,3.64651 a 0.79889138,0.79889138 0 0 1 -0.86328,0 l -5.69141,-3.64651 a 0.79889138,0.79889138 0 0 1 0,-1.34375 l 5.69141,-3.64453 a 0.79889138,0.79889138 0 0 1 0.45508,-0.12695 z m 16.10742,0.004 a 0.79889138,0.79889138 0 0 1 0.4082,0.12696 l 5.69141,3.64453 a 0.79889138,0.79889138 0 0 1 0,1.34375 l -5.69141,3.6465 a 0.79889138,0.79889138 0 0 1 -0.86328,0 l -5.6914,-3.6465 a 0.79889138,0.79889138 0 0 1 0,-1.34375 l 5.6914,-3.64453 a 0.79889138,0.79889138 0 0 1 0.45508,-0.12696 z m -23.05078,5.44727 a 0.79889138,0.79889138 0 0 1 0.4082,0.12695 l 5.83789,3.73832 a 0.79889138,0.79889138 0 0 1 0.36719,0.6718 l 0,6.084 a 0.79889138,0.79889138 0 0 1 -1.2168,0.6797 l -5.83789,-3.5898 a 0.79889138,0.79889138 0 0 1 -0.38086,-0.6797 l 0,-6.23244 a 0.79889138,0.79889138 0 0 1 0.82227,-0.79883 z m 13.88672,0 a 0.79889138,0.79889138 0 0 1 0.77539,0.79883 l 0,6.23244 a 0.79889138,0.79889138 0 0 1 -0.38086,0.6797 l -5.83594,3.5898 a 0.79889138,0.79889138 0 0 1 -1.21679,-0.6797 l 0,-6.084 a 0.79889138,0.79889138 0 0 1 0.36718,-0.6718 l 5.83594,-3.73832 a 0.79889138,0.79889138 0 0 1 0.45508,-0.12695 z m 2.2207,0.004 a 0.79889138,0.79889138 0 0 1 0.4082,0.12696 l 5.83594,3.74021 a 0.79889138,0.79889138 0 0 1 0.36719,0.6719 l 0,6.082 a 0.79889138,0.79889138 0 0 1 -1.2168,0.6797 l -5.83593,-3.5898 a 0.79889138,0.79889138 0 0 1 -0.38086,-0.6797 l 0,-6.23244 a 0.79889138,0.79889138 0 0 1 0.82226,-0.79883 z m 13.88672,0 a 0.79889138,0.79889138 0 0 1 0.77539,0.79883 l 0,6.23244 a 0.79889138,0.79889138 0 0 1 -0.38086,0.6797 l -5.83789,3.5898 a 0.79889138,0.79889138 0 0 1 -1.2168,-0.6797 l 0,-6.082 a 0.79889138,0.79889138 0 0 1 0.36719,-0.6719 l 5.83789,-3.74021 a 0.79889138,0.79889138 0 0 1 0.45508,-0.12696 z m -14.98633,8.08987 a 0.79889138,0.79889138 0 0 1 0.38867,0.1211 l 5.96875,3.7285 a 0.79889138,0.79889138 0 0 1 -0.002,1.3555 l -5.96875,3.7187 a 0.79889138,0.79889138 0 0 1 -0.8457,0 l -5.96875,-3.7324 a 0.79889138,0.79889138 0 0 1 0.002,-1.3555 l 5.96875,-3.7148 a 0.79889138,0.79889138 0 0 1 0.45703,-0.1211 z m -15.00781,0.7363 a 0.79889138,0.79889138 0 0 1 0.39062,0.1152 l 5.83594,3.5469 a 0.79889138,0.79889138 0 0 1 0.38477,0.6836 l 0.002,6.1973 a 0.79889138,0.79889138 0 0 1 -1.2168,0.6797 l -5.83789,-3.5899 a 0.79889138,0.79889138 0 0 1 -0.38086,-0.6797 l 0,-6.1543 a 0.79889138,0.79889138 0 0 1 0.82227,-0.7988 z m 30.00391,0.01 a 0.79889138,0.79889138 0 0 1 0.76562,0.7988 l 0,6.1484 a 0.79889138,0.79889138 0 0 1 -0.38086,0.6797 l -5.83789,3.5899 a 0.79889138,0.79889138 0 0 1 -1.2168,-0.6797 l 0,-6.082 a 0.79889138,0.79889138 0 0 1 0.375,-0.6778 l 5.83789,-3.6562 a 0.79889138,0.79889138 0 0 1 0.45704,-0.1211 z m -21.95118,4.8613 a 0.79889138,0.79889138 0 0 1 0.40821,0.127 l 3.88086,2.4843 a 0.79889138,0.79889138 0 0 1 -0.0137,1.3516 l -3.88086,2.3867 a 0.79889138,0.79889138 0 0 1 -1.21679,-0.6797 l 0,-4.8711 a 0.79889138,0.79889138 0 0 1 0.82226,-0.7988 z m 13.88868,0 a 0.79889138,0.79889138 0 0 1 0.77539,0.7988 l 0,4.875 a 0.79889138,0.79889138 0 0 1 -1.2168,0.6797 l -3.88477,-2.3867 a 0.79889138,0.79889138 0 0 1 -0.0137,-1.3516 l 3.88477,-2.4882 a 0.79889138,0.79889138 0 0 1 0.45508,-0.127 z m -8.11524,3.8828 a 0.79889138,0.79889138 0 0 1 0.83985,0.7969 l 0,5.9414 a 0.79889138,0.79889138 0 0 1 -1.2168,0.6797 L 282.5,1019.4551 a 0.79889138,0.79889138 0 0 1 0,-1.3594 l 4.83008,-2.9707 a 0.79889138,0.79889138 0 0 1 0.37695,-0.1172 z m 2.27735,0 a 0.79889138,0.79889138 0 0 1 0.39453,0.1192 l 4.82617,2.9668 a 0.79889138,0.79889138 0 0 1 0,1.3593 l -4.82617,2.9688 a 0.79889138,0.79889138 0 0 1 -1.2168,-0.6797 l 0,-5.9356 a 0.79889138,0.79889138 0 0 1 0.82227,-0.7988 z" />
    <g
       style="fill:#37474f;fill-opacity:1"
       id="g5262"
       transform="matrix(0.09616418,0,0,0.09626366,269.0303,985.16958)" />
    <g
       style="fill:#37474f;fill-opacity:1"
       id="g5264"
       transform="matrix(0.09616418,0,0,0.09626366,269.0303,985.16958)" />
    <g
       style="fill:#37474f;fill-opacity:1"
       id="g5266"
       transform="matrix(0.09616418,0,0,0.09626366,269.0303,985.16958)" />
    <g
       style="fill:#37474f;fill-opacity:1"
       id="g5268"
       transform="matrix(0.09616418,0,0,0.09626366,269.0303,985.16958)" />
    <g
       style="fill:#37474f;fill-opacity:1"
       id="g5270"
       transform="matrix(0.09616418,0,0,0.09626366,269.0303,985.16958)" />
    <g
       style="fill:#37474f;fill-opacity:1"
       id="g5272"
       transform="matrix(0.09616418,0,0,0.09626366,269.0303,985.16958)" />
    <g
       style="fill:#37474f;fill-opacity:1"
       id="g5274"
       transform="matrix(0.09616418,0,0,0.09626366,269.0303,985.16958)" />
    <g
       style="fill:#37474f;fill-opacity:1"
       id="g5276"
       transform="matrix(0.09616418,0,0,0.09626366,269.0303,985.16958)" />
    <g
       style="fill:#37474f;fill-opacity:1"
       id="g5278"
       transform="matrix(0.09616418,0,0,0.09626366,269.0303,985.16958)" />
    <g
       style="fill:#37474f;fill-opacity:1"
       id="g5280"
       transform="matrix(0.09616418,0,0,0.09626366,269.0303,985.16958)" />
    <g
       style="fill:#37474f;fill-opacity:1"
       id="g5282"
       transform="matrix(0.09616418,0,0,0.09626366,269.0303,985.16958)" />
    <g
       style="fill:#37474f;fill-opacity:1"
       id="g5284"
       transform="matrix(0.09616418,0,0,0.09626366,269.0303,985.16958)" />
    <g
       style="fill:#37474f;fill-opacity:1"
       id="g5286"
       transform="matrix(0.09616418,0,0,0.09626366,269.0303,985.16958)" />
    <g
       style="fill:#37474f;fill-opacity:1"
       id="g5288"
       transform="matrix(0.09616418,0,0,0.09626366,269.0303,985.16958)" />
    <g
       style="fill:#37474f;fill-opacity:1"
       id="g5290"
       transform="matrix(0.09616418,0,0,0.09626366,269.0303,985.16958)" />
    <g
       id="g5360"
       transform="matrix(0.07836591,0,0,0.07840237,334.235,985.79502)"
       style="fill:#72818a;fill-opacity:1">
      <g
         id="g5318"
         style="fill:#72818a;fill-opacity:1">
        <circle
           id="circle5320"
           r="30"
           cy="245.145"
           cx="245.259"
           style="fill:#72818a;fill-opacity:1" />
        <path
           id="path5322"
           d="m 460.259,156.145 c -5.665,0 -10.961,1.571 -15.48,4.299 -17.505,-6.889 -42.389,-10.398 -72.267,-10.398 -8.71,0 -17.85,0.303 -27.346,0.9 C 353.299,69.778 341.205,9.23 310.664,1.046 308.33,0.421 305.938,0.114 303.493,0.114 274.669,0.116 238.642,42.749 208.142,108.569 166.312,79.342 128.194,61.32 100.731,58.092 96.089,47.527 85.539,40.145 73.258,40.145 c -16.569,0 -30,13.432 -30,30 0,10.909 5.824,20.457 14.532,25.707 1.581,28.223 20.6,69.309 52.562,114.553 C 38.057,243.144 -6.9,282.139 0.869,311.129 c 6.169,23.026 44.311,34.893 99.314,34.893 14.85,0 30.932,-0.867 47.944,-2.61 -2.561,42.689 0.995,78.255 10.362,101.373 -2.684,4.493 -4.23,9.745 -4.23,15.36 0,16.568 13.431,30 30,30 14.462,0 26.533,-10.234 29.368,-23.855 21.472,-13.338 44.837,-44.17 66.1,-86.434 47.391,33.521 90.243,52.869 118.56,52.869 10.893,0 19.643,-2.865 25.664,-8.887 21.865,-21.865 2.095,-79.597 -45.205,-145.944 40.414,-20.017 70.428,-41.8 84.696,-61.919 15.071,-1.59 26.817,-14.337 26.817,-29.83 0,-16.568 -13.432,-30 -30,-30 z M 179.106,263.453 c 2.838,-13.887 6.165,-28.008 9.976,-42.232 1.921,-7.17 3.94,-14.268 6.047,-21.273 8.622,-2.649 17.398,-5.176 26.305,-7.563 15.14,-4.057 30.27,-7.6 45.172,-10.598 7.179,6.654 14.322,13.531 21.4,20.609 8.321,8.32 16.357,16.73 24.079,25.174 -1.906,8.262 -3.975,16.584 -6.214,24.943 -3.484,13.003 -7.291,25.765 -11.369,38.18 -13.971,4.668 -28.432,9.021 -43.246,12.99 -8.562,2.294 -17.121,4.422 -25.637,6.383 -7.753,-7.145 -15.469,-14.535 -23.108,-22.175 -8.08,-8.078 -15.889,-16.241 -23.405,-24.438 z m 22.673,51.678 c -10.723,2.088 -21.313,3.886 -31.692,5.389 1.149,-10.606 2.65,-21.507 4.489,-32.621 4.495,4.722 9.093,9.437 13.792,14.136 4.459,4.459 8.932,8.822 13.411,13.096 z M 302.148,188.255 c -3.704,-3.704 -7.417,-7.346 -11.137,-10.923 10.667,-1.745 21.142,-3.184 31.346,-4.313 -1.444,10.035 -3.179,20.275 -5.196,30.664 -4.883,-5.152 -9.884,-10.3 -15.013,-15.428 z m 23.041,69.435 c 1.062,-3.963 2.084,-7.911 3.069,-11.844 6.945,8.121 13.565,16.239 19.835,24.31 -9.594,4.206 -19.603,8.268 -29.961,12.161 2.459,-8.059 4.818,-16.27 7.057,-24.627 z M 250.042,72.456 c 10.955,-17.62 22.207,-31.788 32.543,-40.972 11.547,-10.263 18.47,-11.371 20.91,-11.371 0.712,0 1.365,0.082 1.993,0.25 4.05,1.085 8.439,6.593 12.041,15.109 5.102,12.064 8.426,29.526 9.613,50.498 1.139,20.117 0.361,42.631 -2.213,66.649 -16.622,1.692 -34.138,4.226 -52.271,7.61 -16.154,-14.572 -32.273,-27.861 -48.013,-39.692 8.021,-17.664 16.553,-33.857 25.397,-48.081 z m -33.554,66.969 c 10.516,8.033 21.094,16.677 31.649,25.822 -10.486,2.334 -21.128,4.938 -31.878,7.819 -4.63,1.24 -9.213,2.52 -13.754,3.826 4.384,-12.94 9.062,-25.476 13.983,-37.467 z M 96.442,149.831 C 85.163,128.016 79.927,111.348 78.292,99.716 89.702,97.787 98.917,89.42 102.076,78.479 c 18.444,3.135 43.92,14.239 71.928,31.535 8.521,5.262 17.175,11.029 25.903,17.216 -7.426,17.671 -14.424,36.708 -20.79,56.802 -17.583,5.682 -34.325,11.821 -50.015,18.28 -12.99,-18.099 -24.022,-35.774 -32.66,-52.481 z m 53.313,173.282 c -17.479,1.915 -34.15,2.909 -49.572,2.909 -25.356,0 -46.632,-2.679 -61.528,-7.746 -12.303,-4.186 -17.606,-9.109 -18.467,-12.323 -0.942,-3.515 1.72,-9.735 7.121,-16.64 7.963,-10.182 21.49,-21.535 39.119,-32.836 16.15,-10.352 35.06,-20.318 55.998,-29.605 10.616,13.984 22.364,28.254 35.135,42.568 -3.513,18.611 -6.105,36.598 -7.806,53.673 z m 12.893,-78.216 c -7.455,-8.703 -14.542,-17.403 -21.22,-26.047 9.892,-3.971 20.147,-7.787 30.706,-11.423 -0.802,2.857 -1.595,5.727 -2.37,8.618 -2.604,9.715 -4.971,19.343 -7.116,28.852 z m 82.263,156.383 c -10.955,17.619 -22.208,31.787 -32.543,40.971 -0.882,0.784 -1.728,1.498 -2.556,2.178 -5.282,-8.568 -14.749,-14.283 -25.554,-14.283 -3.241,0 -6.358,0.521 -9.282,1.471 -3.72,-11.488 -6.179,-26.457 -7.164,-43.852 -0.818,-14.463 -0.648,-30.162 0.469,-46.77 16.556,-2.27 33.829,-5.315 51.575,-9.145 14.628,13.102 29.216,25.15 43.508,36.006 -5.944,12.027 -12.118,23.234 -18.453,33.424 z m 27.136,-51.952 c -9.393,-7.237 -18.83,-14.937 -28.252,-23.057 4.194,-1.049 8.406,-2.135 12.637,-3.269 10.153,-2.721 20.101,-5.605 29.809,-8.633 -4.494,12.134 -9.243,23.823 -14.194,34.959 z m 122.026,-8.871 c 21.248,41.096 21.051,63.922 15.734,69.238 -2.635,2.637 -8.35,3.029 -11.521,3.029 -18.566,0 -48.368,-11.826 -81.764,-32.446 -9.22,-5.693 -18.592,-11.954 -28.05,-18.726 7.728,-17.005 15.081,-35.496 21.848,-55.152 17.76,-6.222 34.53,-12.894 50.065,-19.857 13.44,18.6 24.823,36.766 33.688,53.914 z M 406.264,239.59 c -11.811,7.571 -25.104,14.936 -39.579,21.98 -9.993,-13.064 -20.974,-26.368 -32.838,-39.714 3.749,-17.425 6.72,-34.399 8.932,-50.703 10.314,-0.732 20.259,-1.107 29.733,-1.107 24.048,0 44.415,2.414 59.161,6.985 -0.916,2.875 -1.414,5.936 -1.414,9.114 0,9.896 4.793,18.669 12.182,24.134 -8.163,9.244 -20.556,19.298 -36.177,29.311 z"
           inkscape:connector-curvature="0"
           style="fill:#72818a;fill-opacity:1" />
      </g>
      <g
         id="g5324"
         style="fill:#72818a;fill-opacity:1" />
      <g
         id="g5326"
         style="fill:#72818a;fill-opacity:1" />
      <g
         id="g5328"
         style="fill:#72818a;fill-opacity:1" />
      <g
         id="g5330"
         style="fill:#72818a;fill-opacity:1" />
      <g
         id="g5332"
         style="fill:#72818a;fill-opacity:1" />
      <g
         id="g5334"
         style="fill:#72818a;fill-opacity:1" />
      <g
         id="g5336"
         style="fill:#72818a;fill-opacity:1" />
      <g
         id="g5338"
         style="fill:#72818a;fill-opacity:1" />
      <g
         id="g5340"
         style="fill:#72818a;fill-opacity:1" />
      <g
         id="g5342"
         style="fill:#72818a;fill-opacity:1" />
      <g
         id="g5344"
         style="fill:#72818a;fill-opacity:1" />
      <g
         id="g5346"
         style="fill:#72818a;fill-opacity:1" />
      <g
         id="g5348"
         style="fill:#72818a;fill-opacity:1" />
      <g
         id="g5350"
         style="fill:#72818a;fill-opacity:1" />
      <g
         id="g5352"
         style="fill:#72818a;fill-opacity:1" />
    </g>
    <g
       id="g5453"
       transform="matrix(1.3753653,0,0,1.2112842,203.6243,985.95722)"
       style="fill:#72818a;stroke:none;stroke-opacity:1;stroke-width:0.76778849;stroke-miterlimit:4;stroke-dasharray:none;stroke-linejoin:round;fill-opacity:1">
      <g
         id="g5381"
         style="fill:#72818a;stroke:none;stroke-opacity:1;stroke-width:0.76778849;stroke-miterlimit:4;stroke-dasharray:none;stroke-linejoin:round;fill-opacity:1">
        <g
           id="g5383"
           style="fill:#72818a;stroke:none;stroke-opacity:1;stroke-width:0.76778849;stroke-miterlimit:4;stroke-dasharray:none;stroke-linejoin:round;fill-opacity:1">
          <path
             id="path5385"
             d="m 30.221,7.01 0,-1.982 -0.287,-0.113 C 29.835,4.878 27.507,3.973 24.399,3.973 21.074,3.973 18.206,4.987 15.873,6.988 13.542,4.987 10.674,3.973 7.347,3.973 4.239,3.973 1.911,4.878 1.814,4.916 l -0.287,0.112 0,1.836 C 0.586,7.04 0,7.355 0,7.87 0,10.546 0,26.787 0,26.787 l 13.934,0 c 0.481,0.431 1.187,0.705 1.974,0.705 0.787,0 1.492,-0.273 1.976,-0.705 l 13.582,0 c 0,0 0,-17.979 0,-18.917 C 31.465,7.451 30.991,7.178 30.221,7.01 Z M 15.724,25.296 c -1.158,-0.479 -5.143,-1.993 -9.132,-1.993 -1.576,0 -2.973,0.242 -4.163,0.719 l 0,-18.368 C 3.122,5.422 5.016,4.875 7.346,4.875 c 3.063,0 5.695,0.927 7.847,2.734 l 0,10.964 0.531,-0.584 0,7.307 z m 13.592,-1.268 c -1.278,-0.514 -2.746,-0.772 -4.371,-0.772 -3.986,0 -7.782,1.528 -8.924,2.03 l 0,-7.297 0.531,0.584 0,-10.964 c 2.15,-1.807 4.783,-2.734 7.846,-2.734 2.324,0 4.223,0.548 4.918,0.779 l 0,18.374 z"
             inkscape:connector-curvature="0"
             style="fill:#72818a;stroke:none;stroke-opacity:1;stroke-width:0.76778849;stroke-miterlimit:4;stroke-dasharray:none;stroke-linejoin:round;fill-opacity:1" />
          <path
             id="path5387"
             d="m 9.769,8.651 c 2.135,0.41 3.59,1.197 3.615,1.21 L 13.738,9.223 C 13.633,9.163 12.061,8.311 9.768,7.895 l 10e-4,0.756 0,0 z"
             inkscape:connector-curvature="0"
             style="fill:#72818a;stroke:none;stroke-opacity:1;stroke-width:0.76778849;stroke-miterlimit:4;stroke-dasharray:none;stroke-linejoin:round;fill-opacity:1" />
          <path
             id="path5389"
             d="m 9.769,10.721 c 2.135,0.409 3.59,1.197 3.615,1.211 l 0.354,-0.639 c -0.105,-0.06 -1.677,-0.912 -3.97,-1.327 l 10e-4,0.755 0,0 z"
             inkscape:connector-curvature="0"
             style="fill:#72818a;stroke:none;stroke-opacity:1;stroke-width:0.76778849;stroke-miterlimit:4;stroke-dasharray:none;stroke-linejoin:round;fill-opacity:1" />
          <path
             id="path5391"
             d="m 9.769,12.666 c 2.135,0.41 3.59,1.197 3.615,1.211 l 0.354,-0.639 c -0.105,-0.061 -1.677,-0.912 -3.97,-1.327 l 10e-4,0.755 0,0 z"
             inkscape:connector-curvature="0"
             style="fill:#72818a;stroke:none;stroke-opacity:1;stroke-width:0.76778849;stroke-miterlimit:4;stroke-dasharray:none;stroke-linejoin:round;fill-opacity:1" />
          <path
             id="path5393"
             d="m 9.769,14.798 c 2.135,0.41 3.59,1.198 3.615,1.211 l 0.354,-0.638 c -0.105,-0.06 -1.677,-0.913 -3.97,-1.328 l 10e-4,0.755 0,0 z"
             inkscape:connector-curvature="0"
             style="fill:#72818a;stroke:none;stroke-opacity:1;stroke-width:0.76778849;stroke-miterlimit:4;stroke-dasharray:none;stroke-linejoin:round;fill-opacity:1" />
          <path
             id="path5395"
             d="m 4.216,16.192 0.188,0.707 c 4.705,-1.246 8.938,1.063 8.98,1.086 l 0.354,-0.639 C 13.558,17.245 9.212,14.869 4.216,16.192 Z"
             inkscape:connector-curvature="0"
             style="fill:#72818a;stroke:none;stroke-opacity:1;stroke-width:0.76778849;stroke-miterlimit:4;stroke-dasharray:none;stroke-linejoin:round;fill-opacity:1" />
          <path
             id="path5397"
             d="m 4.216,18.221 0.188,0.707 c 4.705,-1.248 8.938,1.061 8.98,1.085 l 0.354,-0.638 C 13.558,19.272 9.212,16.898 4.216,18.221 Z"
             inkscape:connector-curvature="0"
             style="fill:#72818a;stroke:none;stroke-opacity:1;stroke-width:0.76778849;stroke-miterlimit:4;stroke-dasharray:none;stroke-linejoin:round;fill-opacity:1" />
          <path
             id="path5399"
             d="m 4.216,20.255 0.188,0.707 c 4.705,-1.249 8.938,1.062 8.98,1.084 l 0.354,-0.638 C 13.558,21.306 9.212,18.931 4.216,20.255 Z"
             inkscape:connector-curvature="0"
             style="fill:#72818a;stroke:none;stroke-opacity:1;stroke-width:0.76778849;stroke-miterlimit:4;stroke-dasharray:none;stroke-linejoin:round;fill-opacity:1" />
          <path
             id="path5401"
             d="M 18.577,9.916 C 18.621,9.893 22.853,7.584 27.556,8.832 L 27.744,8.125 C 22.748,6.801 18.401,9.177 18.22,9.279 l 0.357,0.637 z"
             inkscape:connector-curvature="0"
             style="fill:#72818a;stroke:none;stroke-opacity:1;stroke-width:0.76778849;stroke-miterlimit:4;stroke-dasharray:none;stroke-linejoin:round;fill-opacity:1" />
          <path
             id="path5403"
             d="m 18.223,11.348 0.354,0.638 c 0.044,-0.023 4.276,-2.333 8.979,-1.084 l 0.188,-0.708 c -4.994,-1.324 -9.34,1.052 -9.521,1.154 z"
             inkscape:connector-curvature="0"
             style="fill:#72818a;stroke:none;stroke-opacity:1;stroke-width:0.76778849;stroke-miterlimit:4;stroke-dasharray:none;stroke-linejoin:round;fill-opacity:1" />
          <path
             id="path5405"
             d="m 18.223,13.292 0.354,0.639 c 0.044,-0.024 4.276,-2.332 8.979,-1.086 l 0.188,-0.706 c -4.994,-1.323 -9.34,1.052 -9.521,1.153 z"
             inkscape:connector-curvature="0"
             style="fill:#72818a;stroke:none;stroke-opacity:1;stroke-width:0.76778849;stroke-miterlimit:4;stroke-dasharray:none;stroke-linejoin:round;fill-opacity:1" />
          <path
             id="path5407"
             d="m 18.223,15.425 0.354,0.638 c 0.044,-0.023 4.276,-2.333 8.979,-1.085 l 0.188,-0.707 c -4.994,-1.325 -9.34,1.052 -9.521,1.154 z"
             inkscape:connector-curvature="0"
             style="fill:#72818a;stroke:none;stroke-opacity:1;stroke-width:0.76778849;stroke-miterlimit:4;stroke-dasharray:none;stroke-linejoin:round;fill-opacity:1" />
          <path
             id="path5409"
             d="m 18.223,17.4 0.354,0.64 c 0.044,-0.024 4.276,-2.333 8.979,-1.086 l 0.188,-0.707 c -4.994,-1.323 -9.34,1.051 -9.521,1.153 z"
             inkscape:connector-curvature="0"
             style="fill:#72818a;stroke:none;stroke-opacity:1;stroke-width:0.76778849;stroke-miterlimit:4;stroke-dasharray:none;stroke-linejoin:round;fill-opacity:1" />
          <path
             id="path5411"
             d="m 18.223,19.429 0.354,0.638 c 0.044,-0.023 4.276,-2.332 8.979,-1.085 l 0.188,-0.706 c -4.994,-1.324 -9.34,1.051 -9.521,1.153 z"
             inkscape:connector-curvature="0"
             style="fill:#72818a;stroke:none;stroke-opacity:1;stroke-width:0.76778849;stroke-miterlimit:4;stroke-dasharray:none;stroke-linejoin:round;fill-opacity:1" />
          <path
             id="path5413"
             d="m 18.223,21.463 0.354,0.637 c 0.044,-0.021 4.276,-2.333 8.979,-1.084 l 0.188,-0.707 c -4.994,-1.324 -9.34,1.053 -9.521,1.154 z"
             inkscape:connector-curvature="0"
             style="fill:#72818a;stroke:none;stroke-opacity:1;stroke-width:0.76778849;stroke-miterlimit:4;stroke-dasharray:none;stroke-linejoin:round;fill-opacity:1" />
          <path
             id="path5415"
             d="m 8.978,14.669 0,-6.897 c 0,0 -1.174,-0.134 -2.381,-0.102 -1.205,0.033 -2.381,0.4 -2.381,0.4 l 0,6.896 c 0,0 0.983,-0.291 2.251,-0.383 1.266,-0.092 2.511,0.086 2.511,0.086 z"
             inkscape:connector-curvature="0"
             style="fill:#72818a;stroke:none;stroke-opacity:1;stroke-width:0.76778849;stroke-miterlimit:4;stroke-dasharray:none;stroke-linejoin:round;fill-opacity:1" />
        </g>
      </g>
      <g
         id="g5417"
         style="fill:#72818a;stroke:none;stroke-opacity:1;stroke-width:0.76778849;stroke-miterlimit:4;stroke-dasharray:none;stroke-linejoin:round;fill-opacity:1" />
      <g
         id="g5419"
         style="fill:#72818a;stroke:none;stroke-opacity:1;stroke-width:0.76778849;stroke-miterlimit:4;stroke-dasharray:none;stroke-linejoin:round;fill-opacity:1" />
      <g
         id="g5421"
         style="fill:#72818a;stroke:none;stroke-opacity:1;stroke-width:0.76778849;stroke-miterlimit:4;stroke-dasharray:none;stroke-linejoin:round;fill-opacity:1" />
      <g
         id="g5423"
         style="fill:#72818a;stroke:none;stroke-opacity:1;stroke-width:0.76778849;stroke-miterlimit:4;stroke-dasharray:none;stroke-linejoin:round;fill-opacity:1" />
      <g
         id="g5425"
         style="fill:#72818a;stroke:none;stroke-opacity:1;stroke-width:0.76778849;stroke-miterlimit:4;stroke-dasharray:none;stroke-linejoin:round;fill-opacity:1" />
      <g
         id="g5427"
         style="fill:#72818a;stroke:none;stroke-opacity:1;stroke-width:0.76778849;stroke-miterlimit:4;stroke-dasharray:none;stroke-linejoin:round;fill-opacity:1" />
      <g
         id="g5429"
         style="fill:#72818a;stroke:none;stroke-opacity:1;stroke-width:0.76778849;stroke-miterlimit:4;stroke-dasharray:none;stroke-linejoin:round;fill-opacity:1" />
      <g
         id="g5431"
         style="fill:#72818a;stroke:none;stroke-opacity:1;stroke-width:0.76778849;stroke-miterlimit:4;stroke-dasharray:none;stroke-linejoin:round;fill-opacity:1" />
      <g
         id="g5433"
         style="fill:#72818a;stroke:none;stroke-opacity:1;stroke-width:0.76778849;stroke-miterlimit:4;stroke-dasharray:none;stroke-linejoin:round;fill-opacity:1" />
      <g
         id="g5435"
         style="fill:#72818a;stroke:none;stroke-opacity:1;stroke-width:0.76778849;stroke-miterlimit:4;stroke-dasharray:none;stroke-linejoin:round;fill-opacity:1" />
      <g
         id="g5437"
         style="fill:#72818a;stroke:none;stroke-opacity:1;stroke-width:0.76778849;stroke-miterlimit:4;stroke-dasharray:none;stroke-linejoin:round;fill-opacity:1" />
      <g
         id="g5439"
         style="fill:#72818a;stroke:none;stroke-opacity:1;stroke-width:0.76778849;stroke-miterlimit:4;stroke-dasharray:none;stroke-linejoin:round;fill-opacity:1" />
      <g
         id="g5441"
         style="fill:#72818a;stroke:none;stroke-opacity:1;stroke-width:0.76778849;stroke-miterlimit:4;stroke-dasharray:none;stroke-linejoin:round;fill-opacity:1" />
      <g
         id="g5443"
         style="fill:#72818a;stroke:none;stroke-opacity:1;stroke-width:0.76778849;stroke-miterlimit:4;stroke-dasharray:none;stroke-linejoin:round;fill-opacity:1" />
      <g
         id="g5445"
         style="fill:#72818a;stroke:none;stroke-opacity:1;stroke-width:0.76778849;stroke-miterlimit:4;stroke-dasharray:none;stroke-linejoin:round;fill-opacity:1" />
    </g>
    <path
       inkscape:connector-curvature="0"
       d="m 20.755962,994.30578 c 0.386353,0.62584 0.854533,1.19647 1.356455,1.74149 0.381292,0.41376 0.776924,0.81552 1.212205,1.17966 0.389727,0.32654 0.855376,0.4802 1.307527,0.5218 0.431907,0.008 0.690882,-0.0856 0.787891,-0.5202 0.03458,-0.15606 0.04808,-0.32012 0.04134,-0.47939 -0.02025,-0.47619 -0.158591,-0.92597 -0.366952,-1.35813 -0.264879,-0.55062 -0.6622,-0.97718 -1.255227,-1.22208 -0.529759,-0.21849 -1.058675,-0.43938 -1.59181,-0.65146 -0.493486,-0.19608 -0.99119,-0.38015 -1.504922,-0.52261 -0.07508,-0.0208 -0.151842,-0.04 -0.228607,-0.0456 -0.129065,-0.008 -0.18221,0.0384 -0.198238,0.16165 -0.02278,0.17208 0.0017,0.34094 0.07592,0.49701 0.112194,0.23689 0.226919,0.47458 0.364421,0.69786 z m 9.263203,-1.55101 c -0.344175,-0.14806 -0.68835,-0.29692 -1.038431,-0.43217 -0.507827,-0.19528 -1.023246,-0.37055 -1.555536,-0.4954 -0.161965,-0.0377 -0.324773,-0.0592 -0.490956,-0.036 -0.115568,0.0159 -0.159434,0.056 -0.177992,0.16486 -0.02194,0.12806 -0.02278,0.2561 0.02194,0.37935 0.04724,0.13285 0.09279,0.2665 0.152685,0.39456 0.25307,0.54261 0.588809,1.03961 0.952386,1.51979 0.500236,0.66107 1.069643,1.26131 1.747027,1.7647 0.219327,0.16327 0.452152,0.30812 0.706908,0.41936 0.18896,0.0824 0.383823,0.12966 0.593871,0.11846 0.27669,-0.0145 0.480833,-0.12886 0.592184,-0.37696 0.111351,-0.24809 0.133283,-0.51059 0.140032,-0.7531 -0.0034,-0.29211 -0.03037,-0.55941 -0.102916,-0.82032 -0.230293,-0.82912 -0.695098,-1.48298 -1.541196,-1.84712 z m -1.153156,9.57893 c 0.608212,0.5019 1.246792,0.9669 1.93936,1.3606 0.155216,0.089 0.322242,0.164 0.492643,0.2225 0.27669,0.094 0.48505,0.029 0.674853,-0.1833 0.112194,-0.1264 0.183053,-0.2745 0.214266,-0.4329 0.05989,-0.3082 0.117256,-0.6171 0.153529,-0.9285 0.05989,-0.5218 0.145093,-1.0379 0.281751,-1.5477 0.0523,-0.1953 0.09195,-0.3946 0.127379,-0.5938 0.03037,-0.1698 -0.05399,-0.25858 -0.237042,-0.26178 -0.09111,-0.002 -0.183898,-0.004 -0.27416,0.008 -0.219327,0.0304 -0.437811,0.0656 -0.655451,0.10649 -0.566877,0.1048 -1.133753,0.2121 -1.699786,0.3225 -0.245478,0.048 -0.48252,0.043 -0.714501,-0.055 -0.09954,-0.042 -0.203299,-0.073 -0.302841,-0.1128 -0.203299,-0.083 -0.403224,-0.1753 -0.609055,-0.25216 -0.132439,-0.0488 -0.273314,-0.0768 -0.409972,-0.11445 -0.162809,0.008 -0.275003,0.0752 -0.334053,0.21211 -0.02784,0.064 -0.04977,0.1336 -0.05399,0.2017 -0.02784,0.4017 0.105446,0.7546 0.3737,1.0652 0.311276,0.3609 0.665574,0.6787 1.033369,0.9819 z m -6.001974,-1.5157 c -0.08689,0.01 -0.173775,0.024 -0.259819,0.018 -0.114725,-0.01 -0.16787,0.043 -0.214266,0.1369 -0.143406,0.2873 -0.296936,0.569 -0.447091,0.8538 -0.420095,0.798 -0.857063,1.5863 -1.378386,2.3298 -0.124849,0.1785 -0.235356,0.3665 -0.357673,0.5466 -0.166182,0.2449 -0.231137,0.5154 -0.24379,0.7987 -0.02869,0.6291 0.06495,1.2437 0.262349,1.8439 0.06327,0.1929 0.145093,0.3802 0.264879,0.5499 0.0987,0.14 0.232825,0.2344 0.405755,0.2713 0.17968,0.039 0.353455,0.01 0.522169,-0.059 0.315494,-0.1249 0.557597,-0.3313 0.755835,-0.5906 0.243791,-0.317 0.403225,-0.6723 0.528916,-1.0445 0.275847,-0.8187 0.393102,-1.6647 0.465648,-2.5178 0.04386,-0.5225 0.06664,-1.0459 0.102072,-1.6118 0,-0.1977 0.0025,-0.437 -8.43e-4,-0.6762 -0.0034,-0.245 -0.02869,-0.4859 -0.155216,-0.7075 -0.05483,-0.098 -0.131597,-0.1513 -0.250539,-0.1417 z m 2.110602,0.9219 c -0.07592,-0.083 -0.171244,-0.1528 -0.26741,-0.2152 -0.0793,-0.051 -0.172087,-0.077 -0.273315,-0.051 -0.251383,0.061 -0.428532,0.3049 -0.378761,0.5466 0.027,0.1328 0.0717,0.2641 0.127378,0.3882 0.1704,0.3761 0.388041,0.729 0.632675,1.0668 0.68835,0.9515 1.58506,1.6838 2.640362,2.2473 1.121101,0.5978 2.329087,0.9724 3.584314,1.2108 0.523855,0.099 1.054458,0.1721 1.583374,0.2441 0.296936,0.041 0.597246,0.069 0.896712,0.078 0.657138,0.02 1.314276,0.024 2.037213,0.038 0.68835,-0.024 1.440811,-0.05 2.193273,-0.08 0.484206,-0.018 0.964195,-0.064 1.43828,-0.1521 0.286813,-0.052 0.566877,-0.1249 0.825852,-0.2609 0.356828,-0.1881 0.485894,-0.4898 0.48252,-0.8588 -0.0017,-0.091 -0.02868,-0.1817 -0.09026,-0.2544 -0.06411,-0.077 -0.129909,-0.1553 -0.209205,-0.2185 -0.233667,-0.1873 -0.498547,-0.3321 -0.771863,-0.4594 -0.753305,-0.3514 -1.4619,-0.7715 -2.087827,-1.3037 -0.554222,-0.4714 -1.093262,-0.9588 -1.639893,-1.4382 -0.200769,-0.1769 -0.404911,-0.3513 -0.609055,-0.525 -0.138345,-0.1177 -0.304527,-0.132 -0.478302,-0.1032 -0.0987,0.016 -0.140876,0.054 -0.140876,0.1488 -8.43e-4,0.1441 0,0.2897 0.02025,0.4321 0.0329,0.2306 0.131597,0.4443 0.228608,0.6564 0.202455,0.4385 0.41166,0.8739 0.614959,1.3125 0.04386,0.093 0.07761,0.1928 0.105446,0.2921 0.03037,0.1096 -0.0042,0.1752 -0.11135,0.2209 -0.05736,0.025 -0.122318,0.043 -0.184742,0.055 -0.253913,0.049 -0.510357,0.059 -0.767646,0.053 -0.517949,-0.013 -1.035899,-0.024 -1.553005,-0.052 -0.477458,-0.025 -0.955761,-0.058 -1.431532,-0.1072 -0.488425,-0.05 -0.975163,-0.1177 -1.460213,-0.1897 -0.649547,-0.097 -1.288127,-0.2393 -1.908148,-0.4474 -0.539883,-0.1808 -1.057833,-0.4017 -1.510827,-0.7427 -0.361047,-0.2689 -0.690882,-0.5698 -0.989504,-0.8988 l 0,0 c -0.186428,-0.208 -0.359359,-0.4265 -0.547475,-0.6322 z m -4.06852,-9.38369 c 0.124004,0.0488 0.25307,0.0664 0.383822,0.0536 0.307059,-0.0312 0.614961,-0.0568 0.918644,-0.10885 1.078078,-0.18407 2.156156,-0.36575 3.230017,-0.57062 1.218953,-0.2321 2.433688,-0.4802 3.647581,-0.7355 1.680384,-0.35373 3.346428,-0.76189 5.003192,-1.20447 0.72378,-0.19288 1.44756,-0.38094 2.172184,-0.57302 0.137501,-0.0368 0.276689,-0.0744 0.407442,-0.12725 0.27669,-0.11205 0.404912,-0.31213 0.369482,-0.65387 -0.01687,-0.16006 -0.08858,-0.30171 -0.174618,-0.43616 -0.518793,-0.82033 -1.148094,-1.55502 -1.909834,-2.18487 -0.340801,-0.28251 -0.698473,-0.54502 -1.143032,-0.67066 -0.104603,0 -0.209205,0 -0.313808,0 -0.162808,0.0761 -0.235355,0.20888 -0.263192,0.37135 -0.0084,0.0488 -0.02025,0.0976 -0.02447,0.14646 -0.01856,0.21368 -0.0388,0.42816 -0.05061,0.64264 -0.0042,0.0704 -0.02953,0.11445 -0.09111,0.14966 -0.245477,0.14166 -0.482519,0.29692 -0.734746,0.42578 -0.478302,0.24489 -0.961666,0.48178 -1.448404,0.71067 -1.145563,0.53861 -2.302093,1.05402 -3.480554,1.52461 -1.923332,0.7683 -3.871971,1.47497 -5.822296,2.17766 -0.186429,0.0672 -0.370326,0.14405 -0.545788,0.23449 -0.232824,0.12004 -0.349236,0.29131 -0.299466,0.62745 0.01519,0.10084 0.07255,0.16326 0.169557,0.20087 z m -2.82173,12.50259 c 0.145093,-0.1873 0.259818,-0.3906 0.358516,-0.6027 0.304527,-0.6539 0.487581,-1.3406 0.625926,-2.04 0.116412,-0.5899 0.174618,-1.1853 0.213423,-1.7831 0.0042,-0.06 0.01519,-0.1209 0.02362,-0.1881 0.350924,-0.059 0.692568,-0.1192 1.035056,-0.1744 0.595558,-0.0961 1.19196,-0.18892 1.788362,-0.28336 0.613272,-0.0968 1.226544,-0.19287 1.839818,-0.28892 0.501922,-0.0784 1.003844,-0.15525 1.505766,-0.23368 0.561815,-0.0872 1.12363,-0.17448 1.686289,-0.26091 0.519637,-0.0801 1.038431,-0.15926 1.558067,-0.23849 0.519638,-0.0792 1.039274,-0.15686 1.558911,-0.23449 0.476615,-0.0713 0.95323,-0.14246 1.430689,-0.21209 0.481676,-0.0704 0.962509,-0.13926 1.444186,-0.20808 0.442872,-0.0632 0.885744,-0.12645 1.328616,-0.18888 0.438655,-0.0616 0.878154,-0.12324 1.316807,-0.18327 0.447935,-0.0616 0.895868,-0.12325 1.343802,-0.18407 0.459744,-0.0632 0.921174,-0.12565 1.380918,-0.18887 0.404913,-0.0552 0.80898,-0.10965 1.213893,-0.16327 0.409129,-0.0544 0.819103,-0.10644 1.228233,-0.15926 0.36695,-0.0464 0.733058,-0.0936 1.10001,-0.13686 0.210892,-0.0248 0.42347,-0.04 0.634362,-0.0656 0.103759,-0.0128 0.151842,0.0336 0.122317,0.14326 -0.01519,0.0512 -0.03711,0.10164 -0.06327,0.14885 -0.05652,0.10245 -0.113882,0.20488 -0.177993,0.30252 -0.40913,0.62505 -0.84694,1.23169 -1.332835,1.80551 -0.17968,0.21209 -0.37623,0.41136 -0.569407,0.61305 -0.135814,0.14165 -0.301153,0.18251 -0.497704,0.12245 -0.32646,-0.10004 -0.655451,-0.19288 -0.981912,-0.29132 -0.724623,-0.21929 -1.446716,-0.44577 -2.193273,-0.59223 -0.264879,-0.052 -0.530603,-0.0913 -0.803919,-0.064 -0.10207,0.0104 -0.194863,0.0384 -0.276689,0.10004 -0.112194,0.0865 -0.135814,0.18727 -0.06074,0.30652 0.03964,0.0632 0.08858,0.12405 0.14425,0.17447 0.127378,0.11764 0.259817,0.23209 0.396475,0.34173 0.402382,0.32245 0.812355,0.63785 1.211362,0.96435 0.869717,0.7131 1.692194,1.4765 2.506236,2.2472 0.333209,0.3154 0.677384,0.6195 1.022403,0.9228 0.22945,0.2017 0.474084,0.389 0.7474,0.5403 0.193176,0.1081 0.397319,0.1778 0.625925,0.1889 0.453839,0.024 0.80898,-0.1897 0.96251,-0.5938 0.08267,-0.2177 0.102072,-0.4426 0.08942,-0.6715 -0.01856,-0.3546 -0.115568,-0.6923 -0.258975,-1.018 -0.228606,-0.5178 -0.561815,-0.9676 -0.979381,-1.3629 -0.131596,-0.1249 -0.258975,-0.2529 -0.393945,-0.3851 0.05061,-0.026 0.08773,-0.047 0.124848,-0.066 0.474084,-0.2353 0.947325,-0.4714 1.42394,-0.7034 0.873091,-0.42736 1.747869,-0.85313 2.622648,-1.27729 0.06411,-0.0312 0.13497,-0.06 0.207517,-0.0713 0.158591,-0.0256 0.318025,-0.0424 0.478303,-0.0577 0.294405,-0.028 0.588808,-0.0513 0.884057,-0.0808 0.09954,-0.01 0.199082,-0.0256 0.295248,-0.0497 0.338271,-0.084 0.508671,-0.42257 0.363577,-0.72189 -0.06411,-0.13205 -0.147624,-0.2529 -0.264036,-0.35054 -0.103758,-0.0881 -0.20583,-0.17846 -0.312963,-0.2633 -0.821634,-0.65306 -1.67701,-1.2637 -2.553476,-1.84793 -0.281751,-0.18727 -0.573625,-0.36094 -0.862125,-0.53701 -0.167025,-0.10164 -0.353454,-0.14566 -0.549161,-0.11605 -0.192333,0.0288 -0.388885,0.0552 -0.572782,0.11525 -0.746556,0.24329 -1.513358,0.40256 -2.287752,0.53701 -0.607368,0.10484 -1.213893,0.21208 -1.822104,0.31213 -0.501078,0.0824 -1.004687,0.15366 -1.505766,0.23209 -0.451308,0.0704 -0.900085,0.14325 -1.351393,0.21528 -0.113038,0.0184 -0.226076,0.0368 -0.351767,0.0577 0.01265,-0.0264 0.01603,-0.0393 0.02362,-0.0472 0.05567,-0.052 0.11135,-0.10485 0.169556,-0.15286 1.085671,-0.88115 2.152782,-1.7823 3.199648,-2.70427 0.309589,-0.2721 0.609899,-0.55542 0.914426,-0.83233 0.06411,-0.0592 0.102072,-0.12805 0.1181,-0.21448 0.05061,-0.27851 0.0076,-0.54262 -0.121474,-0.79551 -0.146781,-0.28652 -0.360203,-0.52741 -0.60315,-0.7427 -0.598089,-0.53141 -1.306685,-0.85393 -2.113134,-0.97958 -0.214266,-0.0336 -0.430219,-0.0608 -0.65039,-0.0368 -0.160277,0.0177 -0.275846,0.092 -0.350924,0.22569 -0.0793,0.14485 -0.13497,0.29612 -0.12063,0.46259 0.01181,0.12324 0.02109,0.24729 0.04808,0.36814 0.06917,0.30572 0.04555,0.59383 -0.115568,0.87555 -0.188116,0.33052 -0.349238,0.67386 -0.533135,1.00679 -0.635205,1.15726 -1.273785,2.31212 -1.913208,3.46696 -0.15606,0.28172 -0.159435,0.28412 -0.482521,0.34335 -0.989503,0.18327 -1.979007,0.36814 -2.97104,0.541 -0.961666,0.16808 -1.926706,0.31933 -2.890059,0.4818 -1.164122,0.19607 -2.328243,0.39295 -3.490678,0.59463 -1.137127,0.19768 -2.272568,0.40416 -3.410539,0.60183 -0.531447,0.092 -1.068799,0.14167 -1.610368,0.12085 -0.02531,-8e-4 -0.05061,-0.007 -0.07761,-0.0104 -0.128222,-0.23689 -0.248852,-0.47538 -0.383822,-0.70588 -0.101228,-0.17287 -0.213422,-0.34013 -0.33321,-0.5026 -0.05061,-0.0688 -0.124847,-0.12885 -0.202455,-0.17127 -0.188959,-0.10564 -0.421783,-0.004 -0.465648,0.19848 -0.02025,0.0928 -0.027,0.18808 -0.03459,0.28332 -0.02615,0.32092 -0.0447,0.64265 -0.07592,0.96357 -0.05061,0.51701 -0.182211,1.0156 -0.383823,1.49828 -0.215953,0.5161 -0.503609,0.9971 -0.808137,1.4693 -0.08858,0.1377 -0.174617,0.2762 -0.207517,0.4378 -0.0059,0.027 -0.027,0.051 -0.04049,0.076 0,0.3058 0,0.6114 0,0.9171 0.01687,0.062 0.04133,0.1249 0.04892,0.1882 0.03627,0.3417 0.103759,0.6778 0.215109,1.0051 0.08351,0.2449 0.190647,0.4779 0.352611,0.6875 0.09532,0.1217 0.217641,0.2009 0.375388,0.2265 0.447089,0.071 0.825008,-0.037 1.104228,-0.3961 z m 31.216176,15.8998 c -0.01266,0 -0.02362,-0.01 -0.03711,-0.013 -0.630988,-0.1969 -1.258602,-0.4058 -1.894651,-0.589 -2.411757,-0.6955 -4.807485,-1.4365 -7.165253,-2.2841 -2.260758,-0.8116 -4.472589,-1.7206 -6.589098,-2.8323 -0.0523,-0.026 -0.104603,-0.055 -0.166183,-0.087 0.03796,-0.041 0.06748,-0.076 0.100385,-0.1065 0.888275,-0.8628 1.775707,-1.7287 2.667357,-2.5882 0.567721,-0.549 1.144719,-1.0869 1.714971,-1.6343 0.161121,-0.1552 0.309588,-0.3233 0.460586,-0.4898 0.08267,-0.091 0.117257,-0.2008 0.09617,-0.3233 -0.01772,-0.1112 -0.07086,-0.2065 -0.164495,-0.2729 -0.156903,-0.1105 -0.311276,-0.2289 -0.48252,-0.3169 -0.408286,-0.2081 -0.825852,-0.4082 -1.243417,-0.6002 -0.431062,-0.1969 -0.86803,-0.3803 -1.321025,-0.5283 -0.135814,-0.044 -0.272472,-0.055 -0.410817,-0.032 -0.102071,0.017 -0.204143,0.046 -0.30031,0.082 -0.183053,0.065 -0.361046,0.1408 -0.543256,0.2096 -0.656295,0.2441 -1.332835,0.4282 -2.014437,0.5986 -0.849471,0.213 -1.706535,0.3922 -2.577095,0.5099 -0.115569,0.016 -0.231138,0.024 -0.369483,0.04 0.03122,-0.05 0.04977,-0.082 0.07002,-0.1112 0.0658,-0.097 0.135814,-0.1921 0.199081,-0.2914 0.0987,-0.1528 0.124005,-0.3185 0.05567,-0.4873 -0.05483,-0.1345 -0.113038,-0.2689 -0.19149,-0.3906 -0.231137,-0.3562 -0.513732,-0.6771 -0.810667,-0.9852 -0.177993,-0.1848 -0.384667,-0.3329 -0.617491,-0.4505 -0.280064,-0.1426 -0.566877,-0.2738 -0.869717,-0.3658 -0.151842,-0.047 -0.312119,-0.069 -0.466493,-0.1113 -0.263192,-0.071 -0.592183,0.2098 -0.527228,0.5034 0.03796,0.1737 0.05989,0.3506 0.08267,0.5259 0.04892,0.3825 0.03206,0.7619 -0.13244,1.1196 -0.154373,0.3362 -0.313806,0.6723 -0.498548,0.994 -0.422627,0.7403 -0.951543,1.4126 -1.504079,2.068 -0.954917,1.1348 -1.989973,2.2025 -3.076487,3.2237 -0.841035,0.7907 -1.708221,1.5574 -2.558537,2.3393 -0.234511,0.2161 -0.457213,0.4425 -0.677383,0.6723 -0.137502,0.1424 -0.132441,0.4113 0.0059,0.5554 0.03964,0.042 0.107133,0.071 0.167025,0.083 0.124848,0.024 0.25307,0.016 0.370326,-0.04 0.151842,-0.072 0.307902,-0.1376 0.450465,-0.2232 0.510358,-0.3066 1.018185,-0.6171 1.526011,-0.9292 1.587592,-0.9716 3.089984,-2.0488 4.506332,-3.2349 0.388884,-0.3249 0.790422,-0.6362 1.18268,-0.958 0.102916,-0.084 0.207518,-0.097 0.32393,-0.042 0.105445,0.049 0.211735,0.098 0.312963,0.1529 0.940577,0.5194 1.872718,1.0516 2.760993,1.6502 0.03037,0.02 0.05989,0.044 0.09785,0.071 -0.286812,0.2488 -0.563502,0.4945 -0.846097,0.733 -1.127004,0.9516 -2.320651,1.8224 -3.557319,2.6419 -1.393572,0.9211 -2.831009,1.7759 -4.340994,2.5169 -0.239572,0.1169 -0.476614,0.2393 -0.709439,0.3683 -0.09279,0.05 -0.177992,0.1192 -0.251382,0.1952 -0.163652,0.1672 -0.10882,0.4209 0.112194,0.5154 0.07677,0.033 0.166183,0.049 0.252227,0.055 0.218483,0.016 0.434436,-0.016 0.647015,-0.06 0.480833,-0.098 0.947325,-0.2449 1.410443,-0.4018 2.739904,-0.9299 5.326278,-2.1545 7.765029,-3.6598 0.583748,-0.3594 1.151469,-0.7435 1.727624,-1.1149 0.199925,-0.1288 0.22692,-0.1264 0.408286,0.02 1.794266,1.455 3.586845,2.9133 5.383641,4.3658 0.474085,0.3834 0.96251,0.7499 1.443343,1.1245 0.09279,0.073 0.199081,0.1136 0.312963,0.148 0.228606,0.069 0.461431,0.062 0.69763,0.04 0.393945,-0.036 0.790421,-0.061 1.183523,-0.091 0.369482,-0.028 0.738121,-0.055 1.106759,-0.083 0.355986,-0.028 0.711127,-0.059 1.067111,-0.088 0.354299,-0.028 0.711971,-0.053 1.067112,-0.082 0.55085,-0.046 1.100855,-0.093 1.651703,-0.14 0.438655,-0.037 0.876466,-0.067 1.313434,-0.108 0.550005,-0.052 1.099166,-0.1073 1.647485,-0.1713 0.224389,-0.026 0.444559,-0.076 0.66473,-0.1249 0.112194,-0.024 0.210892,-0.078 0.252226,-0.192 0,-0.058 0,-0.116 0,-0.1737 -0.0523,-0.1721 -0.175462,-0.2689 -0.350923,-0.3137 z m -16.03198,-10.2977 c -0.236199,0.317 -0.468179,0.6371 -0.716188,0.9452 -0.478302,0.5938 -0.976007,1.1733 -1.50914,1.7247 -0.102916,0.1064 -0.220172,0.1993 -0.328991,0.3001 -0.07761,0.072 -0.162809,0.083 -0.26235,0.047 -0.328147,-0.1216 -0.661356,-0.2297 -0.984441,-0.3609 -0.717875,-0.2937 -1.432377,-0.597 -2.146033,-0.8988 -0.145938,-0.062 -0.283439,-0.1408 -0.439499,-0.2176 0.03796,-0.05 0.06158,-0.088 0.09364,-0.1176 0.212579,-0.2066 0.425158,-0.4146 0.642797,-0.6171 0.03375,-0.031 0.09111,-0.046 0.140033,-0.056 0.336583,-0.06 0.674853,-0.1183 1.01228,-0.1784 0.683288,-0.1184 1.367421,-0.2393 2.051553,-0.3561 0.675697,-0.1169 1.351394,-0.2298 2.027091,-0.3442 0.128222,-0.022 0.256444,-0.044 0.385509,-0.063 0.03796,-0.01 0.07677,-0.01 0.150155,-0.011 -0.04724,0.082 -0.07508,0.1472 -0.116412,0.2033 z"
       style="fill:#72818a;fill-opacity:1;stroke:none;stroke-width:3.26999998;stroke-linecap:round;stroke-linejoin:round;stroke-miterlimit:14.89999962;stroke-dasharray:none;stroke-opacity:1"
       id="path4407" />
    <g
       style="fill:none;fill-opacity:1;stroke:#72818a;stroke-width:3.75658059;stroke-linecap:round;stroke-linejoin:round;stroke-miterlimit:14.89999962;stroke-dasharray:none;stroke-opacity:1"
       id="g4409"
       transform="matrix(0.89368414,0,0,0.84786362,12.051479,984.03963)" />
    <g
       style="fill:none;fill-opacity:1;stroke:#72818a;stroke-width:3.75658059;stroke-linecap:round;stroke-linejoin:round;stroke-miterlimit:14.89999962;stroke-dasharray:none;stroke-opacity:1"
       id="g4411"
       transform="matrix(0.89368414,0,0,0.84786362,12.051479,984.03963)" />
    <g
       style="fill:none;fill-opacity:1;stroke:#72818a;stroke-width:3.75658059;stroke-linecap:round;stroke-linejoin:round;stroke-miterlimit:14.89999962;stroke-dasharray:none;stroke-opacity:1"
       id="g4413"
       transform="matrix(0.89368414,0,0,0.84786362,12.051479,984.03963)" />
    <g
       style="fill:none;fill-opacity:1;stroke:#72818a;stroke-width:3.75658059;stroke-linecap:round;stroke-linejoin:round;stroke-miterlimit:14.89999962;stroke-dasharray:none;stroke-opacity:1"
       id="g4415"
       transform="matrix(0.89368414,0,0,0.84786362,12.051479,984.03963)" />
    <g
       style="fill:none;fill-opacity:1;stroke:#72818a;stroke-width:3.75658059;stroke-linecap:round;stroke-linejoin:round;stroke-miterlimit:14.89999962;stroke-dasharray:none;stroke-opacity:1"
       id="g4417"
       transform="matrix(0.89368414,0,0,0.84786362,12.051479,984.03963)" />
    <g
       style="fill:none;fill-opacity:1;stroke:#72818a;stroke-width:3.75658059;stroke-linecap:round;stroke-linejoin:round;stroke-miterlimit:14.89999962;stroke-dasharray:none;stroke-opacity:1"
       id="g4419"
       transform="matrix(0.89368414,0,0,0.84786362,12.051479,984.03963)" />
    <g
       style="fill:none;fill-opacity:1;stroke:#72818a;stroke-width:3.75658059;stroke-linecap:round;stroke-linejoin:round;stroke-miterlimit:14.89999962;stroke-dasharray:none;stroke-opacity:1"
       id="g4421"
       transform="matrix(0.89368414,0,0,0.84786362,12.051479,984.03963)" />
    <g
       style="fill:none;fill-opacity:1;stroke:#72818a;stroke-width:3.75658059;stroke-linecap:round;stroke-linejoin:round;stroke-miterlimit:14.89999962;stroke-dasharray:none;stroke-opacity:1"
       id="g4423"
       transform="matrix(0.89368414,0,0,0.84786362,12.051479,984.03963)" />
    <g
       style="fill:none;fill-opacity:1;stroke:#72818a;stroke-width:3.75658059;stroke-linecap:round;stroke-linejoin:round;stroke-miterlimit:14.89999962;stroke-dasharray:none;stroke-opacity:1"
       id="g4425"
       transform="matrix(0.89368414,0,0,0.84786362,12.051479,984.03963)" />
    <g
       style="fill:none;fill-opacity:1;stroke:#72818a;stroke-width:3.75658059;stroke-linecap:round;stroke-linejoin:round;stroke-miterlimit:14.89999962;stroke-dasharray:none;stroke-opacity:1"
       id="g4427"
       transform="matrix(0.89368414,0,0,0.84786362,12.051479,984.03963)" />
    <g
       style="fill:none;fill-opacity:1;stroke:#72818a;stroke-width:3.75658059;stroke-linecap:round;stroke-linejoin:round;stroke-miterlimit:14.89999962;stroke-dasharray:none;stroke-opacity:1"
       id="g4429"
       transform="matrix(0.89368414,0,0,0.84786362,12.051479,984.03963)" />
    <g
       style="fill:none;fill-opacity:1;stroke:#72818a;stroke-width:3.75658059;stroke-linecap:round;stroke-linejoin:round;stroke-miterlimit:14.89999962;stroke-dasharray:none;stroke-opacity:1"
       id="g4431"
       transform="matrix(0.89368414,0,0,0.84786362,12.051479,984.03963)" />
    <g
       style="fill:none;fill-opacity:1;stroke:#72818a;stroke-width:3.75658059;stroke-linecap:round;stroke-linejoin:round;stroke-miterlimit:14.89999962;stroke-dasharray:none;stroke-opacity:1"
       id="g4433"
       transform="matrix(0.89368414,0,0,0.84786362,12.051479,984.03963)" />
    <g
       style="fill:none;fill-opacity:1;stroke:#72818a;stroke-width:3.75658059;stroke-linecap:round;stroke-linejoin:round;stroke-miterlimit:14.89999962;stroke-dasharray:none;stroke-opacity:1"
       id="g4435"
       transform="matrix(0.89368414,0,0,0.84786362,12.051479,984.03963)" />
    <g
       style="fill:none;fill-opacity:1;stroke:#72818a;stroke-width:3.75658059;stroke-linecap:round;stroke-linejoin:round;stroke-miterlimit:14.89999962;stroke-dasharray:none;stroke-opacity:1"
       id="g4437"
       transform="matrix(0.89368414,0,0,0.84786362,12.051479,984.03963)" />
  </g>
</svg>
